<?xml version="1.0" encoding="utf-8"?>
<!-- Generator: Adobe Illustrator 22.1.0, SVG Export Plug-In . SVG Version: 6.00 Build 0)  -->
<svg version="1.1" id="Слой_1" xmlns="http://www.w3.org/2000/svg" xmlns:xlink="http://www.w3.org/1999/xlink" x="0px" y="0px"
	 viewBox="0 0 100 400" style="enable-background:new 0 0 100 400;" xml:space="preserve">
<style type="text/css">
	.st0{fill:#E0AB8C;}
	.st1{fill:#E29D52;}
	.st2{fill:#8AB9C1;}
	.st3{fill:#7BA5AA;}
	.st4{fill:#9BD1DD;}
	.st5{fill:#E8E097;}
	.st6{fill:#E5E4DA;}
	.st7{fill:#79A9D8;}
	.st8{fill:#6C98BC;}
	.st9{display:none;}
	.st10{display:inline;}
</style>
<g id="Слой_1_1_">
	
		<image style="display:none;overflow:visible;enable-background:new    ;" width="564" height="553" xlink:href="testimg.png"  transform="matrix(0.4973 0 0 0.4973 -461 40)">
	</image>
	<g id="Слой_14">
		<g id="Слой_17">
			<g>
				<g>
					<path class="st0" d="M48.7,317.6c1.5,6.7-0.6,13.5-0.2,20.2c0.2,3.2,5.2,3.2,5,0c-0.5-7.3,1.6-14.4,0-21.6
						C52.8,313.2,48,314.5,48.7,317.6L48.7,317.6z"/>
				</g>
			</g>
			<g>
				<g>
					<path class="st0" d="M50.1,327.8c0.1,0.8-0.1,1.7-0.1,2.5c-0.1,0.9,0,1.8,0,2.7c-0.1,3.2,4.9,3.2,5,0c0-1.1,0-2.1,0.1-3.1
						c0.1-1.2,0.1-2.2-0.1-3.4c-0.2-1.3-1.9-2.1-3.1-1.7C50.4,325.1,49.9,326.4,50.1,327.8L50.1,327.8z"/>
				</g>
			</g>
			<g>
				<g>
					<path class="st0" d="M50.4,331.1c0.3,5.3-0.1,10.5,0.3,15.8c0.2,3.2,5.2,3.2,5,0c-0.4-5.3,0-10.5-0.3-15.8
						C55.2,327.9,50.2,327.9,50.4,331.1L50.4,331.1z"/>
				</g>
			</g>
			<g>
				<g>
					<path class="st0" d="M49.1,339.4c-0.2,2.6-0.2,5.2-0.1,7.7c0.1,3.2,5.1,3.2,5,0c-0.1-2.6-0.1-5.2,0.1-7.7
						C54.3,336.2,49.3,336.2,49.1,339.4L49.1,339.4z"/>
				</g>
			</g>
			<g>
				<g>
					<path class="st0" d="M48.7,337.9c0,3.8-0.5,7.6,0.6,11.3c0.9,3.1,5.7,1.8,4.8-1.3c-0.9-3.2-0.4-6.6-0.4-10
						C53.7,334.7,48.7,334.7,48.7,337.9L48.7,337.9z"/>
				</g>
			</g>
			<g>
				<g>
					<path class="st0" d="M48.5,347.3c0,1.3,0.1,2.5,0.1,3.8s1.1,2.6,2.5,2.5c1.3-0.1,2.5-1.1,2.5-2.5c0-1.3-0.1-2.5-0.1-3.8
						s-1.1-2.6-2.5-2.5C49.7,344.9,48.5,345.9,48.5,347.3L48.5,347.3z"/>
				</g>
			</g>
			<g>
				<g>
					<path class="st0" d="M52.2,348.6c0.1,0.8,0.2,1.6,0.3,2.5c0.2,1.2,2.1,1.3,2,0c-0.1-0.8-0.1-1.5,0-2.3c-0.7,0-1.3,0-2,0
						c0.1,1,0.2,1.9,0.2,2.9c0,1.3,2,1.3,2,0c0-0.6,0-1.2,0.1-1.8c-0.7-0.1-1.3-0.2-2-0.3c-0.1,1.5,0,2.9,0.3,4.4
						c0.4-0.4,0.8-0.8,1.2-1.2c-0.9-0.2-1.8-0.7-2.7-0.7c-1,0-1.8,0.6-2.8,0.8c0.4,0.4,0.8,0.8,1.2,1.2c0.3-1.4,0.4-2.8,0.5-4.3
						c0-1.3-2-1.3-2,0s-0.2,2.5-0.4,3.7c-0.1,0.7,0.5,1.4,1.2,1.2c0.7-0.2,1.5-0.8,2.2-0.7c0.7,0,1.5,0.5,2.2,0.6
						c0.8,0.1,1.4-0.4,1.2-1.2c-0.2-1.3-0.3-2.5-0.2-3.8c0.1-1.1-1.7-1.4-2-0.3c-0.2,0.8-0.2,1.5-0.2,2.3c0.7,0,1.3,0,2,0
						c0-1-0.1-1.9-0.2-2.9c-0.1-1.3-1.8-1.3-2,0c-0.1,0.8-0.1,1.5,0,2.3c0.7,0,1.3,0,2,0c-0.1-0.8-0.2-1.6-0.3-2.5
						C54.1,347.4,52.1,347.4,52.2,348.6L52.2,348.6z"/>
				</g>
			</g>
			<g>
				<g>
					<path class="st0" d="M51,327c-1.3-2.8-0.7-7-0.7-10.1c-0.7,0-1.3,0-2,0c0.1,2.5,0.3,5.1,0.4,7.6c0.1,1.3,2.1,1.3,2,0
						c-0.1-2.5-0.3-5.1-0.4-7.6c-0.1-1.3-2-1.3-2,0c0,3.5-0.6,7.8,1,11.1C49.8,329.2,51.5,328.2,51,327L51,327z"/>
				</g>
			</g>
			<g>
				<g>
					<path class="st0" d="M49.9,291.5c-0.3,1.8-0.6,3.5-0.6,5.3c0.7,0,1.3,0,2,0c-0.1-1.7-0.1-3.3-0.2-5c-0.7,0-1.3,0-2,0
						c0.2,4,0.4,8,0.4,12.1c0,1.3,1.9,1.3,2,0c0.2-4,0.5-7.9,1.1-11.8c-0.7-0.1-1.3-0.2-2-0.3c0.7,5.8,0.2,11.9,0.2,17.8
						c0.7-0.1,1.3-0.2,2-0.3c-0.6-3.4-1-6.4-0.2-9.7c-0.6,0-1.3,0-1.9,0c1.6,6.1,1.1,13.4,1.4,19.6c0.1,1.3,2.1,1.3,2,0
						c-0.4-6.5,0.2-13.9-1.5-20.2c-0.3-0.9-1.7-1-1.9,0c-0.9,3.7-0.5,7.1,0.2,10.8c0.2,1.1,2,0.8,2-0.3c0-5.8,0.5-12-0.2-17.8
						c-0.1-1-1.8-1.5-2-0.3c-0.6,4.1-1,8.2-1.1,12.4c0.7,0,1.3,0,2,0c-0.1-4-0.2-8-0.4-12.1c-0.1-1.3-2-1.3-2,0
						c0.1,1.7,0.1,3.3,0.2,5c0,1.3,1.9,1.3,2,0c0-1.6,0.2-3.2,0.6-4.8C52.1,290.8,50.1,290.3,49.9,291.5L49.9,291.5z"/>
				</g>
			</g>
			<g>
				<g>
					<path class="st0" d="M52.5,317.5c-0.8-4.7-0.8-9.4,0-14.1c-0.7-0.1-1.3-0.2-2-0.3c-0.4,4.9-0.6,9.8-0.6,14.8
						c0.7-0.1,1.3-0.2,2-0.3c-0.9-4.2-0.7-8.3,0.6-12.4c-0.6,0-1.3,0-1.9,0c1.1,3.4,0.3,8,0.2,11.5c0.7,0,1.3,0,2,0
						c-0.1-2.4-0.3-4.7-0.4-7.1c-0.1-1.3-1.9-1.3-2,0c-0.1,2.1-0.3,4.3-0.4,6.4c-0.1,1.3,1.9,1.3,2,0c0.1-2.1,0.3-4.3,0.4-6.4
						c-0.7,0-1.3,0-2,0c0.1,2.4,0.3,4.7,0.4,7.1c0.1,1.3,2,1.3,2,0c0-3.7,0.9-8.5-0.3-12c-0.3-0.9-1.6-1-1.9,0
						c-1.4,4.5-1.5,8.9-0.6,13.5c0.2,1.1,2,0.8,2-0.3c0-4.9,0.2-9.9,0.6-14.8c0.1-1.1-1.8-1.4-2-0.3c-0.9,5.1-0.8,10.1,0,15.1
						C50.8,319.3,52.7,318.8,52.5,317.5L52.5,317.5z"/>
				</g>
			</g>
			<g>
				<g>
					<path class="st0" d="M51,316.4c-0.2-2.4-0.2-4.7-0.1-7.1c-0.7,0-1.3,0-2,0c-0.1,2.5-0.3,5-0.4,7.4c0.7,0,1.3,0,2,0
						c0-6,0.6-12,0.4-17.9c0-1.3-2-1.3-2,0c0.2,5.9-0.5,12-0.4,17.9c0,1.3,1.9,1.3,2,0c0.1-2.5,0.3-5,0.4-7.4c0.1-1.3-1.9-1.3-2,0
						c-0.1,2.4-0.1,4.7,0.1,7.1C49.1,317.6,51.1,317.6,51,316.4L51,316.4z"/>
				</g>
			</g>
			<g>
				<g>
					<path class="st0" d="M50.7,305.5c0-5,0.2-10,0.4-15.1c0.1-1.3-1.9-1.3-2,0c-0.3,5-0.4,10-0.4,15.1
						C48.7,306.8,50.7,306.8,50.7,305.5L50.7,305.5z"/>
				</g>
			</g>
			<g>
				<g>
					<path class="st0" d="M50.7,299c0-3.1,0.5-6.1,0.3-9.2c-0.1-1.3-2.1-1.3-2,0c0.2,3.1-0.3,6.1-0.3,9.2
						C48.8,300.3,50.8,300.3,50.7,299L50.7,299z"/>
				</g>
			</g>
			<g>
				<g>
					<path class="st0" d="M48.7,292.9c0,0.8-0.1,1.6-0.1,2.3c0.7,0,1.3,0,2,0c0-1.9,0-3.9,0.2-5.8c0.2-1.3-1.8-1.3-2,0
						c-0.2,1.9-0.2,3.8-0.2,5.8c0,1.3,1.9,1.3,2,0c0-0.8,0.1-1.6,0.1-2.3C50.8,291.6,48.8,291.6,48.7,292.9L48.7,292.9z"/>
				</g>
			</g>
			<g>
				<g>
					<path class="st0" d="M52.4,290.4c0,5.5-0.1,10.9-0.3,16.4c0,1.3,2,1.3,2,0c0.2-5.5,0.2-10.9,0.3-16.4
						C54.4,289.1,52.4,289.1,52.4,290.4L52.4,290.4z"/>
				</g>
			</g>
			<g>
				<g>
					<path class="st0" d="M52.5,297.9c0.8,9.9,0.1,20.1,0.3,30c0,1.3,2,1.3,2,0c-0.2-9.9,0.5-20.2-0.3-30
						C54.4,296.6,52.4,296.6,52.5,297.9L52.5,297.9z"/>
				</g>
			</g>
			<g>
				<g>
					<path class="st0" d="M49.9,289.6c0.1-2.6-0.3-5.2-0.1-7.8c0.1-1.3-1.9-1.3-2,0c-0.2,2.6,0.2,5.2,0.1,7.8
						C47.9,290.9,49.9,290.9,49.9,289.6L49.9,289.6z"/>
				</g>
			</g>
			<g>
				<g>
					<path class="st0" d="M51.3,289.8c-0.1-2.6,0.3-5.2,0.6-7.8c0.1-1.3-1.8-1.2-2,0c-0.4,3.3-0.3,6.4,0.2,9.6
						c0.2,1.1,2.1,0.9,2-0.3c-0.1-1.4-0.3-2.6-0.1-4c-0.6,0-1.3,0-1.9,0c0.3,1.3,0.3,2.5,0.7,3.8c0.3,1.1,1.9,0.8,2-0.3
						c0.2-1.8,0.1-3.6,0.6-5.3c-0.6,0-1.3,0-1.9,0c0.3,1.8,0.3,3.7,0.5,5.5c0.7,0,1.3,0,2,0c-0.4-3-0.3-5.7,0.2-8.7
						c-0.6,0-1.3,0-1.9,0c0.7,2.4,0.3,4.9,0.9,7.2c0.6-0.2,1.3-0.4,1.9-0.5c-0.4-1.2-0.6-2.2-0.8-3.4c-0.2-1.1-2.1-0.9-2,0.3
						c0.1,0.5,0.1,1.1,0.2,1.6c0.7,0,1.3,0,2,0c-0.3-2.7,0-5.4-0.1-8.1c-0.1-1.5,0.4-3.5-0.4-4.8c-0.4-0.7-1.7-0.6-1.8,0.2
						c-0.6,3.4-0.6,6.6-0.4,10c0.6-0.2,1.1-0.5,1.7-0.7c-1.6-1.5-1.4-4.8-1.5-6.8c-0.1-0.9-1.4-1.5-1.9-0.5
						c-0.8,1.7-0.9,3.5-1.5,5.2c0.6,0,1.3,0,1.9,0c-0.3-2.1-0.2-4,0.3-6c0.3-1.2-1.6-1.8-1.9-0.5c-0.1,0.4-0.2,0.7-0.3,1.1
						c0.7,0.1,1.3,0.2,2,0.3c0.1-1,0.3-2,0.8-2.9c-0.6,0.1-1.1,0.3-1.7,0.4c1,0.9,1.7,2,1.9,3.4c0.6-0.2,1.3-0.4,1.9-0.5
						c-0.5-1.1-0.6-2.3-0.1-3.4c-0.6,0.1-1.2,0.2-1.8,0.2c0.1,1.1-0.1,2.1-0.8,3.1c0.5-0.1,1-0.1,1.6-0.2c0-0.8,0.2-1.5,0.5-2.1
						c-0.7-0.1-1.3-0.2-2-0.3c-0.1,0.7-0.2,1.4-0.3,2.1c-0.3,1.2,1.6,1.8,1.9,0.5c0.2-1,0.6-1.9,1.1-2.8c-0.5,0.1-1,0.1-1.6,0.2
						c1.1,1.1,0.5,6.7,0.8,8.4c0.2,1.2,1.9,0.8,2-0.3c0.2-3,0.6-6.6-0.3-9.6c-0.4-1.2-2.3-0.7-1.9,0.5c0.7,2.6,0.4,6.4,0.2,9.1
						c0.7-0.1,1.3-0.2,2-0.3c-0.4-2.5,0.7-7.4-1.3-9.3c-0.5-0.4-1.2-0.4-1.6,0.2c-0.6,1.1-1,2.1-1.3,3.3c0.6,0.2,1.3,0.4,1.9,0.5
						c0.3-1.2,0.3-1.4,0.4-2.6s-1.6-1.2-2-0.3c-0.5,1.4-1.1,2.9,0,4.1c0.4,0.5,1.3,0.4,1.6-0.2c0.8-1.5,1.8-3.5,0.8-5.1
						c-0.5-0.7-1.6-0.6-1.8,0.2c-0.5,1.6-0.4,2.9,0.1,4.5c0.4,1.2,2.2,0.7,1.9-0.5c-0.4-1.7-1.2-3-2.4-4.3c-0.6-0.6-1.4-0.2-1.7,0.4
						c-0.4,1.2-0.7,2.2-0.8,3.5c-0.1,1.1,1.7,1.3,2,0.3c0.1-0.4,0.2-0.7,0.3-1.1c-0.6-0.2-1.3-0.4-1.9-0.5c-0.6,2.4-0.7,4.6-0.3,7.1
						c0.2,1.1,1.6,0.8,1.9,0c0.5-1.6,0.6-3.2,1.3-4.7c-0.6-0.2-1.2-0.3-1.9-0.5c0.1,2.5,0,6.3,2.1,8.2c0.6,0.6,1.7,0.2,1.7-0.7
						c-0.2-3.3-0.2-6.3,0.4-9.5c-0.6,0.1-1.2,0.2-1.8,0.2c0.1,0.2,0.1,4.2,0.1,5c0,2.3-0.1,4.6,0.2,6.9c0.1,1.3,2.1,1.3,2,0
						c0-0.5-0.1-1.1-0.2-1.6c-0.7,0.1-1.3,0.2-2,0.3c0.2,1.2,0.4,2.3,0.8,3.4c0.4,1.2,2.3,0.7,1.9-0.5c-0.7-2.3-0.3-4.9-0.9-7.2
						c-0.3-0.9-1.7-1-1.9,0c-0.6,3.1-0.7,6.1-0.3,9.2c0.2,1.3,2.2,1.3,2,0c-0.3-2-0.3-4-0.6-6.1c-0.2-1-1.7-0.9-1.9,0
						c-0.6,1.9-0.5,3.9-0.7,5.9c0.7-0.1,1.3-0.2,2-0.3c-0.4-1.2-0.4-2.5-0.7-3.8c-0.2-0.9-1.8-1-1.9,0c-0.2,1.6-0.1,3,0.1,4.5
						c0.7-0.1,1.3-0.2,2-0.3c-0.5-3.1-0.5-6-0.1-9.1c-0.7,0-1.3,0-2,0c-0.3,2.6-0.7,5.2-0.6,7.8C49.3,291.1,51.3,291.1,51.3,289.8
						L51.3,289.8z"/>
				</g>
			</g>
			<g>
				<g>
					<path class="st0" d="M52.9,275.7c-0.5-7.5-0.4-15-0.4-22.5c0-3.9,0.1-7.8,0.1-11.8c0-1.3-0.5-11,0-11.2
						c-0.8-0.1-1.6-0.2-2.4-0.3c2.3,1.9,0.8,9.4,0.7,11.9c-0.1,3.6-0.3,7.2-0.5,10.8c-0.3,7.3,0.7,14.8,0.3,22c-0.2,2.6,3.8,2.6,4,0
						c0.3-4.4-0.4-8.8-0.4-13.2c0-4.9,0.2-9.8,0.4-14.7c0.2-4.5,0.6-9,0.4-13.5c-0.1-2.2-0.3-4.7-2.1-6.2c-0.7-0.6-1.6-0.8-2.4-0.3
						c-2.5,1.3-1.9,4.4-1.9,6.9c-0.1,4.6-0.1,9.2-0.2,13.7c-0.1,9.5-0.3,18.9,0.3,28.4C49.1,278.3,53.1,278.3,52.9,275.7L52.9,275.7
						z"/>
				</g>
			</g>
			<path class="st0" d="M52.5,214.9c-2.6,0-2.6,4,0,4S55.1,214.9,52.5,214.9z"/>
			<g>
				<g>
					<path class="st0" d="M52.8,229.1c-0.4-3.5-0.3-7.1-0.3-10.6c0-1.9-1.4-9.1,0.2-9.7c-0.7,0-1.3,0-2,0c0.9,0.6,0.1,4.9,0,5.8
						c-0.3,2.5,3.7,2.5,4,0c0.3-2.4,1-6.6-1-8.6c-1.4-1.3-3.3-1-4.4,0.4c-1.9,2.3-0.9,6.1-0.7,8.7c0.4,4.6-0.1,9.3,0.4,14
						C49.1,231.6,53.1,231.6,52.8,229.1L52.8,229.1z"/>
				</g>
			</g>
			<g>
				<g>
					<path class="st0" d="M51.5,213.8c0.1,3.5,0.2,6.9,0,10.4c-0.1,2.6,3.9,2.6,4,0c0.1-3.5,0.1-6.9,0-10.4
						C55.4,211.3,51.4,211.2,51.5,213.8L51.5,213.8z"/>
				</g>
			</g>
			<g>
				<g>
					<path class="st0" d="M51.4,225.6c-0.2,1.8-0.4,3.7-0.5,5.5c-0.1,2.6,3.9,2.6,4,0c0.1-1.8,0.2-3.7,0.5-5.5c0.1-1.1-1-2-2-2
						C52.3,223.6,51.6,224.6,51.4,225.6L51.4,225.6z"/>
				</g>
			</g>
			<g>
				<g>
					<path class="st0" d="M51.1,203.3c-0.2-2.4-1.2-4.7-1.3-7.2c-0.1-2.6-4.1-2.6-4,0c0.1,2.5,1.1,4.7,1.3,7.2
						S51.4,205.9,51.1,203.3L51.1,203.3z"/>
				</g>
			</g>
			<g>
				<g>
					<path class="st0" d="M48,202.1c0.1,2,0.3,3.9,0.4,5.9c1.3-0.2,2.6-0.4,3.9-0.5c-0.5-2.4-0.6-5-0.7-7.4c-0.1-2.6-4-2.6-4,0
						c0,2.4,0.3,4.8,0.9,7.2c0.4,1.8,3.6,2,3.9,0c0.5-3.2,0.2-6.3,1.2-9.5c-1.3-0.2-2.6-0.4-3.9-0.5c-0.1,3.8-0.6,7.5-0.2,11.2
						c0.3,2.5,4,2.7,4,0s0.3-5.4,0.8-8c-1.3-0.2-2.6-0.4-3.9-0.5c-0.1,2.2-0.1,4.3,0,6.4c0.1,2.6,4,2.6,4,0c0-2.7,0.3-5.3,0.9-8
						c0.6-2.5-3.3-3.6-3.9-1.1c-0.7,3-1,6-1,9c1.3,0,2.7,0,4,0c-0.1-2.2-0.1-4.3,0-6.4c0.1-2.2-3.5-2.8-3.9-0.5
						c-0.6,3-0.9,6-0.9,9.1c1.3,0,2.7,0,4,0c-0.5-3.7,0.1-7.5,0.2-11.2c0-2.3-3.3-2.6-3.9-0.5c-1,3.2-0.7,6.2-1.2,9.5
						c1.3,0,2.6,0,3.9,0c-0.5-2-0.7-4-0.7-6.1c-1.3,0-2.7,0-4,0c0.1,2.9,0.2,5.7,0.8,8.5c0.5,2.2,4.1,1.7,3.9-0.5
						c-0.1-2-0.3-3.9-0.4-5.9C51.8,199.5,47.8,199.5,48,202.1L48,202.1z"/>
				</g>
			</g>
			<g>
				<g>
					<path class="st0" d="M55.1,207.3c0.8-3.4,0.3-7,1-10.4c0.6-2.5-3.3-3.6-3.9-1.1c-0.8,3.4-0.2,7-1,10.4
						C50.6,208.8,54.5,209.8,55.1,207.3L55.1,207.3z"/>
				</g>
			</g>
			<g>
				<g>
					<path class="st0" d="M56,203.8c0.3-4.3,0.7-8.5,1.6-12.8c0.5-2.5-3.3-3.6-3.9-1.1c-0.9,4.6-1.4,9.1-1.7,13.8
						C51.8,206.3,55.8,206.3,56,203.8L56,203.8z"/>
				</g>
			</g>
			<g>
				<g>
					<path class="st0" d="M56.3,199.5c1.1-3.1,1.1-6.4,2.1-9.5c0.8-2.5-3.1-3.5-3.9-1.1c-1,3.1-1,6.4-2.1,9.5
						C51.6,200.9,55.5,201.9,56.3,199.5L56.3,199.5z"/>
				</g>
			</g>
			<g>
				<g>
					<path class="st0" d="M54.8,190.9C55.1,191,55.1,191,54.8,190.9c0,0,0.1,0,0.2,0.1S55.1,191.1,54.8,190.9
						c0.2,0.1,0.3,0.1,0.3,0.2c0.7,0.7,2.1,0.8,2.8,0c0.7-0.8,0.8-2,0-2.8c-0.6-0.6-1.3-1-2.1-1.3c-1-0.3-2.2,0.4-2.5,1.4
						C53.2,189.5,53.8,190.6,54.8,190.9L54.8,190.9z"/>
				</g>
			</g>
			<g>
				<g>
					<path class="st0" d="M54.6,188.8c0,0.2-0.1,0.3-0.1,0.5c0,0.1-0.2,0.5-0.1,0.2c-0.2,0.3-0.3,0.6-0.5,0.9
						c-0.6,0.9-0.2,2.3,0.7,2.7c1,0.5,2.1,0.2,2.7-0.7c0.5-0.8,0.9-1.6,1.1-2.5c0.2-1-0.3-2.2-1.4-2.5
						C56,187.2,54.9,187.7,54.6,188.8L54.6,188.8z"/>
				</g>
			</g>
			<g>
				<g>
					<path class="st0" d="M55.2,188.8C54.9,189.1,55.3,188.7,55.2,188.8c-0.1,0.2-0.2,0.3-0.3,0.4c-0.2,0.2-0.4,0.4-0.6,0.6
						c-0.7,0.7-0.8,2.1,0,2.8s2,0.8,2.8,0c0.6-0.6,1.1-1.2,1.5-1.8c0.6-0.9,0.2-2.3-0.7-2.7C56.9,187.5,55.8,187.9,55.2,188.8
						L55.2,188.8z"/>
				</g>
			</g>
			<g>
				<g>
					<path class="st0" d="M55.1,187.7c-1.5-0.3-2.8,0.3-4.3-0.1c-1.7-0.5-3.6-0.3-4,1.7c-0.6,2.5,3.3,3.6,3.9,1.1
						c0-0.1,0-0.2,0.1-0.3c-0.2,0.3-0.3,0.6-0.5,0.9c0.1-0.1,0.1-0.1,0.2-0.2c-0.3,0.2-0.6,0.3-0.9,0.5c-0.1,0,0.7,0.3,0.9,0.3
						c0.5,0.1,1,0.1,1.6,0.2c0.4,0,0.7,0.1,1.1,0c0.3,0,0.9-0.2,1-0.2C56.5,192.1,57.6,188.2,55.1,187.7L55.1,187.7z"/>
				</g>
			</g>
			<g>
				<g>
					<path class="st0" d="M45.6,191.3c0.4,0.3,0.7,0.7,0.8,1c0.3,0.6,0.3,1.3,0.5,1.9c0.3,1,1.4,1.7,2.5,1.4c1-0.3,1.7-1.4,1.4-2.5
						c-0.3-0.9-0.4-1.8-0.8-2.6s-0.9-1.5-1.6-2.1c-0.8-0.7-2-0.8-2.8,0C44.8,189.2,44.7,190.5,45.6,191.3L45.6,191.3z"/>
				</g>
			</g>
			<g>
				<g>
					<path class="st0" d="M45.5,191c1,1.3,1.6,2.8,1.8,4.4c0.2,1.1,1.5,1.7,2.5,1.4c1.1-0.3,1.6-1.4,1.4-2.5
						c-0.4-2.3-1.4-4.3-2.8-6.1c-0.7-0.8-2.1-0.7-2.8,0C44.6,189,44.8,190.2,45.5,191L45.5,191z"/>
				</g>
			</g>
			<g>
				<g>
					<path class="st0" d="M45.6,192.2c0.4,1.2,0.7,2.3,1,3.5c0.4,2,3.4,1.9,3.9,0c0.2-0.6,0.2-1.3,0.3-2c0-0.3,0-0.6,0-0.8
						c0-0.4,0.2-0.5-0.1-0.3c-0.5,0.2-0.9,0.4-1.4,0.6c0.1,0,0.2,0,0.3,0c-0.5-0.2-0.9-0.4-1.4-0.6c1,0.8,1.4,2.3,1.7,3.5
						c1.2-0.5,2.4-1,3.7-1.5c-0.1-0.2-0.3-0.9-0.3-1c-0.6,0.2-1.3,0.3-1.9,0.5c0.1,0,0.2,0,0.3,0.1c-0.3-0.2-0.6-0.3-0.9-0.5
						c0.3,0.4,0.4,0.9,0.5,1.3c0.4,2.2,4,1.7,3.9-0.5c0-0.6,0-0.3-0.1-0.2c0.8-0.7,0.7-2.1,0-2.8c-0.8-0.8-2-0.7-2.8,0
						c-0.9,0.7-1.1,1.9-1.1,3.1c1.3-0.2,2.6-0.4,3.9-0.5c-0.3-2-2.1-4.9-4.4-3.3c-2.1,1.4-1.4,4.1-0.6,6c0.9,2.1,4.3,0.6,3.7-1.5
						c-0.6-2-1.5-5.4-3.9-5.8c-3.3-0.6-2.8,3.5-3.2,5.4c1.3,0,2.6,0,3.9,0c-0.2-1.2-0.6-2.4-1-3.5C48.7,188.8,44.8,189.8,45.6,192.2
						L45.6,192.2z"/>
				</g>
			</g>
			<g>
				<g>
					<path class="st0" d="M47.6,190.3c0.2,0.2,0.4,0.4,0.6,0.6c0,0.1,0.2,0.3,0.1,0.1c0.1,0.1,0.2,0.3,0.3,0.4
						c0.3,0.5,0.6,1,0.9,1.5c0.5,0.9,1.9,1.3,2.7,0.7c1-0.6,1.2-1.7,0.7-2.7c-0.6-1.3-1.5-2.5-2.4-3.5c-0.7-0.8-2.1-0.8-2.8,0
						C46.9,188.2,46.8,189.4,47.6,190.3L47.6,190.3z"/>
				</g>
			</g>
		</g>
		<g id="Слой_19">
			<g>
				<g>
					<path class="st1" d="M55.9,189.1c-0.5,4-1.6,7.6-3.1,11.3c-1.3,3.1-1.4,6-1.3,9.3c0,0.6,1,0.6,1,0c-0.1-2.1-0.2-4.3,0.3-6.3
						c0.4-1.7,1.2-3.2,1.8-4.8c1.2-3.1,1.9-6.3,2.3-9.5C57,188.4,56,188.4,55.9,189.1L55.9,189.1z"/>
				</g>
			</g>
			<g>
				<g>
					<path class="st1" d="M49.6,208.1c0.6,6.4-0.2,13.1,2.8,19.1c0.3,0.6,1.2,0.1,0.9-0.5c-2.9-5.8-2.1-12.3-2.7-18.6
						C50.5,207.5,49.5,207.5,49.6,208.1L49.6,208.1z"/>
				</g>
			</g>
			<g>
				<g>
					<path class="st1" d="M46.8,189.5c0.7,5.3,2.2,10.4,2.6,15.8c0,0.6,1,0.6,1,0c-0.4-5.4-1.9-10.5-2.6-15.8
						C47.7,188.9,46.7,188.9,46.8,189.5L46.8,189.5z"/>
				</g>
			</g>
			<g>
				<g>
					<path class="st1" d="M52.6,211.7c0.2,1.8-0.3,3.6-0.4,5.4c-0.1,1.8,0,3.5,0.3,5.2c0.1,0.6,1.1,0.4,1-0.3
						c-0.3-1.9-0.4-3.8-0.2-5.7c0.1-1.6,0.5-3,0.4-4.6C53.5,211,52.5,211,52.6,211.7L52.6,211.7z"/>
				</g>
			</g>
			<g>
				<g>
					<path class="st1" d="M49.7,225.1c0.2,4.4,0.3,8.9,0.5,13.3c0,0.6,1,0.6,1,0c-0.2-4.4-0.3-8.9-0.5-13.3
						C50.7,224.5,49.7,224.5,49.7,225.1L49.7,225.1z"/>
				</g>
			</g>
			<g>
				<g>
					<path class="st1" d="M51.3,228.9c1.6,4.2,1.8,8.5,0.4,12.7c-0.2,0.6,0.8,0.9,1,0.3c1.4-4.4,1.3-9-0.4-13.3
						C52,228.1,51.1,228.3,51.3,228.9L51.3,228.9z"/>
				</g>
			</g>
			<g>
				<g>
					<path class="st1" d="M49.9,240.7c0,1.5-0.2,4.1,1.3,5.1c1.4,0.9,2.5-0.6,2.6-1.9c0.1-0.6-0.9-0.6-1,0c-0.1,0.7-0.8,1.4-1.4,0.7
						c-0.2-0.3-0.3-0.8-0.4-1.2c-0.2-0.9-0.2-1.8-0.2-2.7C50.9,240.1,49.9,240.1,49.9,240.7L49.9,240.7z"/>
				</g>
			</g>
			<g>
				<g>
					<path class="st1" d="M49.3,189.2c0.6,3.3,0.9,6.7,0.7,10.1c0,0.6,1,0.6,1,0c0.1-3.5-0.2-6.9-0.8-10.3
						C50.2,188.3,49.2,188.5,49.3,189.2L49.3,189.2z"/>
				</g>
			</g>
			<g>
				<g>
					<path class="st1" d="M51.6,190.5c0,0.7,0.1,4.9,1.6,4.2c0.6-0.3,0.9-1.3,1-1.9c0.3-1,0.4-2.1,0.5-3.2c0.1-0.6-0.9-0.6-1,0
						c-0.1,1.2-0.3,2.5-0.7,3.6c-0.1,0.1-0.1,0.3-0.2,0.4c0.1,0,0.2,0.1,0.3,0.1c0-0.2-0.2-0.8-0.2-1c-0.1-0.7-0.2-1.5-0.2-2.2
						C52.6,189.8,51.6,189.8,51.6,190.5L51.6,190.5z"/>
				</g>
			</g>
			<g>
				<g>
					<path class="st1" d="M54.2,206.9c0.4-1.8,0.7-3.6,1.1-5.4c0.1-0.6-0.8-0.9-1-0.3c-0.3,1.8-0.7,3.6-1.1,5.4
						C53.1,207.3,54.1,207.6,54.2,206.9L54.2,206.9z"/>
				</g>
			</g>
			<g>
				<g>
					<path class="st1" d="M52.8,247.4c-0.1,3-0.8,5.3-2,8c-0.8,1.9-1.2,3.8-1.2,5.8c0,0.6,1,0.6,1,0c0-3.1,1.2-5.2,2.3-7.9
						c0.7-1.9,0.8-3.9,0.9-5.9C53.8,246.8,52.8,246.8,52.8,247.4L52.8,247.4z"/>
				</g>
			</g>
			<g>
				<g>
					<path class="st1" d="M50.1,247.5c-0.4,1.5-0.4,3-0.1,4.5c0.1,0.6,1.1,0.4,1-0.3c-0.3-1.3-0.3-2.7,0.1-4
						C51.2,247.1,50.3,246.8,50.1,247.5L50.1,247.5z"/>
				</g>
			</g>
			<g>
				<g>
					<path class="st1" d="M52.4,256.5c0,5.7-2.2,11.3-0.3,16.9c0.2,0.6,1.2,0.3,1-0.3c-1.9-5.5,0.3-11,0.3-16.6
						C53.4,255.9,52.4,255.9,52.4,256.5L52.4,256.5z"/>
				</g>
			</g>
			<g>
				<g>
					<path class="st1" d="M50,263.4c-0.4,2.1-0.5,4.2-0.4,6.3c0.1,0.6,1.1,0.6,1,0c-0.2-2-0.1-4,0.3-6C51.1,263,50.1,262.8,50,263.4
						L50,263.4z"/>
				</g>
			</g>
			<g>
				<g>
					<path class="st1" d="M49.6,272.5c0.7,4.6-0.2,9.9-0.5,14.5c0,0.6,1,0.6,1,0c0.2-4.8,1.1-10,0.4-14.8
						C50.4,271.6,49.5,271.9,49.6,272.5L49.6,272.5z"/>
				</g>
			</g>
			<g>
				<g>
					<path class="st1" d="M51.6,275.7c0.1,1.9,0.1,3.9-0.2,5.8c-0.1,0.6,0.9,0.9,1,0.3c0.3-2,0.4-4,0.2-6
						C52.6,275,51.6,275,51.6,275.7L51.6,275.7z"/>
				</g>
			</g>
			<g>
				<g>
					<path class="st1" d="M52.5,283c-1.8,4.4-2.6,9-2.3,13.8c0,0.6,1,0.6,1,0c-0.3-4.7,0.5-9.2,2.2-13.5
						C53.7,282.7,52.7,282.4,52.5,283L52.5,283z"/>
				</g>
			</g>
			<g>
				<g>
					<path class="st1" d="M52.6,291c0.7,6.7-1.2,13.3-0.4,20c0.1,0.6,1.1,0.6,1,0c-0.7-6.7,1.1-13.3,0.4-20
						C53.5,290.3,52.5,290.3,52.6,291L52.6,291z"/>
				</g>
			</g>
			<g>
				<g>
					<path class="st1" d="M49.9,299.8c-0.4,3.9-1.3,9.4,0.6,13.1c0.8,1.6,2.5,2.2,3.2,0.2c0.2-0.6-0.7-0.9-1-0.3
						c-1.1-0.2-1.7-0.8-1.8-1.7c-0.2-0.7-0.3-1.5-0.3-2.3c-0.1-0.8-0.1-1.7-0.1-2.6c0-2.2,0.1-4.4,0.4-6.5
						C51,299.2,50,299.2,49.9,299.8L49.9,299.8z"/>
				</g>
			</g>
			<g>
				<g>
					<path class="st1" d="M49.3,314.1c0.1,1.4,0.3,3.1,1.7,3.8c1.5,0.8,2.3-0.6,2.6-1.9c0.2-0.6-0.8-0.9-1-0.3
						c-0.1,0.4-0.2,0.8-0.5,1.2c-0.4,0.5-1,0-1.3-0.3c-0.6-0.7-0.6-1.6-0.7-2.5C50.3,313.5,49.3,313.5,49.3,314.1L49.3,314.1z"/>
				</g>
			</g>
			<g>
				<g>
					<path class="st1" d="M49.6,319.3c0.5,3.4,0.1,6.9,0,10.2c0,0.6,1,0.6,1,0c0.1-3.5,0.4-7.1-0.1-10.5
						C50.5,318.4,49.6,318.7,49.6,319.3L49.6,319.3z"/>
				</g>
			</g>
			<g>
				<g>
					<path class="st1" d="M52.3,320.3c0.6,4.8-0.7,9.5-0.1,14.3c0.1,0.6,1.1,0.6,1,0c-0.5-4.8,0.7-9.5,0.1-14.3
						C53.3,319.6,52.3,319.6,52.3,320.3L52.3,320.3z"/>
				</g>
			</g>
			<g>
				<g>
					<path class="st1" d="M49.9,332.3c0.3,2.5,1.2,4.8,1.9,7.2c0.9,2.9,0.7,5.7,0.5,8.7c0,0.6,1,0.6,1,0c0.1-2.4,0.4-4.9-0.1-7.3
						c-0.6-2.9-2-5.6-2.3-8.6C50.8,331.6,49.8,331.6,49.9,332.3L49.9,332.3z"/>
				</g>
			</g>
			<g>
				<g>
					<path class="st1" d="M49.8,339.9c0.2,3.8-0.6,7.6-0.3,11.4c0.1,0.6,1.1,0.6,1,0c-0.3-3.8,0.5-7.6,0.3-11.4
						C50.7,339.3,49.7,339.3,49.8,339.9L49.8,339.9z"/>
				</g>
			</g>
			<g>
				<g>
					<path class="st1" d="M53.8,335.6c0.3,1.9,0.3,3.9,0.2,5.8c0,0.6,1,0.6,1,0c0.1-2,0-4-0.3-6.1C54.7,334.7,53.7,335,53.8,335.6
						L53.8,335.6z"/>
				</g>
			</g>
			<g>
				<g>
					<path class="st1" d="M52.8,350.6c0.1,0.7,0.1,1.5,0.2,2.2c0,0.6,1,0.6,1,0c-0.1-0.7-0.1-1.5-0.2-2.2
						C53.7,350,52.7,350,52.8,350.6L52.8,350.6z"/>
				</g>
			</g>
		</g>
	</g>
	<g id="Слой_18">
		<g>
			<g>
				<path class="st2" d="M52.2,96.6c1.1,2.4,2,4.9,2.8,7.4c0.8,2.4,4.6,1.4,3.9-1.1c-0.9-2.9-2-5.6-3.2-8.4
					C54.6,92.2,51.2,94.3,52.2,96.6L52.2,96.6z"/>
			</g>
		</g>
		<g>
			<g>
				<path class="st2" d="M54,92.4c1.3,3.3,2.3,6.7,3.1,10.2c0.4,1.9,3.6,2,3.9,0c0.6-4-2.5-7.5-1.7-11.6c-1.1,0.3-2.2,0.6-3.3,0.9
					c1.8,1.5,1.3,5.5,1.3,7.6c1.3,0,2.7,0,4,0c0-3-1-6.1-0.1-9c-1.1,0.3-2.2,0.6-3.3,0.9c0.9,1.2,0.5,3.9,0.5,5.4
					c0,1.9-0.1,3.9-0.2,5.8c-0.1,2.6,3.9,2.6,4,0c0.2-4.3,1.4-10.4-1.4-14.1c-1-1.3-2.9-0.4-3.3,0.9c-1.1,3.4-0.1,6.7-0.1,10.1
					c0,2.6,4,2.6,4,0c0-3.3,0.3-8.1-2.5-10.5c-1.1-0.9-3-0.7-3.3,0.9c-0.4,2-0.4,3.9,0.1,6c0.3,1.6,1.8,4.1,1.6,5.7
					c1.3,0,2.6,0,3.9,0c-0.7-3.5-1.7-6.9-3.1-10.2C56.9,88.9,53,90,54,92.4L54,92.4z"/>
			</g>
		</g>
		<g>
			<g>
				<path class="st2" d="M59.3,88.1c1.1,3.6,0.7,7.4,0.2,11.1c-0.3,2.5,3.7,2.5,4,0c0.5-4.1,0.9-8.1-0.3-12.1
					C62.4,84.6,58.5,85.6,59.3,88.1L59.3,88.1z"/>
			</g>
		</g>
		<g>
			<g>
				<path class="st2" d="M60.8,95.5c-0.1,2.9-0.7,5.7-1.5,8.5c-0.6,2.5,3.2,3.6,3.9,1.1c0.8-3.1,1.5-6.3,1.6-9.6
					C64.8,92.9,60.8,92.9,60.8,95.5L60.8,95.5z"/>
			</g>
		</g>
		<g>
			<g>
				<path class="st2" d="M56.1,104.3c0,1.2,0.1,2.4,0.3,3.5c0.3-0.1,0.6-0.2,1-0.3c-0.3-0.7-0.4-1.4-0.4-2.1c-0.3,0-0.7,0.1-1,0.1
					c1,2.6,0.5,5.2,0.7,7.9c0,0.5,0.6,0.6,0.9,0.3c0.9-1.2,2-2.5,2.8-3.8c0.7-1.2,1-2.7,1.5-4c0.2-0.5-0.6-0.9-0.9-0.4
					c-1,1.6-1.7,3.3-2.3,5c0.3,0.1,0.6,0.2,1,0.3c0.4-1.9,1-3.7,1.9-5.4c-0.3-0.1-0.6-0.3-0.9-0.4c-0.9,2.1-1.6,4.5-2.8,6.5
					c0.3,0.1,0.6,0.2,0.9,0.3c0.2-2.6,0.6-5.1,1.3-7.6c-0.3-0.1-0.6-0.2-1-0.3c-0.6,2.7-1.2,5.4-1.9,8.1c0.3,0,0.7,0.1,1,0.1
					c-0.3-2.6,0.3-5.5,0.6-8.1c0.1-0.6-0.9-0.7-1-0.1c-0.3,1.9-0.5,3.7-0.8,5.6c0.3,0,0.7,0.1,1,0.1c-0.2-2.3-0.3-4.6-0.2-6.9
					c-0.3,0-0.7,0-1,0c0.3,2.3,0.5,4.6,0.7,7c0.3,0,0.7-0.1,1-0.1c-0.5-1.6-1.6-5.5,0.1-6.9c-0.3,0-0.5-0.1-0.8-0.1
					c1.2,1.8,0.7,4.8,0.3,6.8c0.3,0,0.6,0,1,0c-0.7-1.8-0.5-4.4,0.8-5.9c-0.3-0.1-0.6-0.1-0.8-0.2c0.7,1.8-0.3,4.9-0.7,6.8
					c0.3,0,0.7,0.1,1,0.1c0.2-2,0.6-4.1,1.6-5.7c-0.3,0-0.6,0-0.9,0c0.3,0.4-0.6,2.7-0.8,3.2c-0.3,1-0.6,2.1-0.9,3.1
					c-0.2,0.6,0.8,0.9,1,0.3c0.5-1.7,0.9-3.3,1.4-5c0.2-0.7,0.6-1.4,0.1-2c-0.2-0.3-0.6-0.3-0.9,0c-1.2,1.9-1.6,4.1-1.8,6.2
					c-0.1,0.6,0.9,0.7,1,0.1c0.4-2,1.5-5.3,0.7-7.3c-0.1-0.3-0.6-0.5-0.8-0.2c-1.5,1.8-1.9,4.7-1.1,6.9c0.2,0.4,0.9,0.5,1,0
					c0.5-2.4,1-5.4-0.4-7.6c-0.2-0.3-0.5-0.3-0.8-0.1c-2,1.7-1,5.7-0.4,7.8c0.2,0.5,1,0.5,1-0.1c-0.1-2.3-0.4-4.7-0.7-7
					c-0.1-0.6-1-0.7-1,0c-0.1,2.3,0,4.6,0.2,6.9c0.1,0.5,0.9,0.7,1,0.1c0.3-1.9,0.5-3.7,0.8-5.6c-0.3,0-0.7-0.1-1-0.1
					c-0.3,2.6-0.9,5.4-0.6,8.1c0.1,0.5,0.8,0.7,1,0.1c0.7-2.7,1.4-5.4,1.9-8.1c0.1-0.6-0.8-0.9-1-0.3c-0.7,2.6-1.1,5.2-1.3,7.8
					c0,0.5,0.7,0.7,0.9,0.3c1.2-2.1,2-4.5,2.9-6.7c0.2-0.5-0.7-0.9-0.9-0.4c-0.9,1.8-1.6,3.7-2,5.7c-0.1,0.6,0.7,0.9,1,0.3
					c0.6-1.7,1.3-3.3,2.2-4.8c-0.3-0.1-0.6-0.3-0.9-0.4c-0.5,1.4-0.9,2.9-1.7,4.2c-0.7,1.2-1.7,2.3-2.5,3.4c0.3,0.1,0.6,0.2,0.9,0.3
					c-0.1-2.8,0.3-5.5-0.7-8.1c-0.2-0.5-1-0.5-1,0.1c0.1,0.8,0.2,1.6,0.5,2.4c0.2,0.6,1.1,0.4,1-0.3c-0.2-1.1-0.3-2.1-0.3-3.3
					C57.1,103.7,56.1,103.7,56.1,104.3L56.1,104.3z"/>
			</g>
		</g>
		<g>
			<g>
				<path class="st2" d="M27.9,75.6c1.3,2.4,2.7,4.3,5,5.9c2.5,1.7,5.3,2.9,7.9,4.3c1.7,0.9,3.2-1.7,1.5-2.6
					c-2.2-1.1-4.4-2.2-6.6-3.4c-2.4-1.4-3.9-3.2-5.2-5.6C29.6,72.4,27,73.9,27.9,75.6L27.9,75.6z"/>
			</g>
		</g>
		<g>
			<g>
				<path class="st2" d="M30.1,79.6c2.9,2.4,5.9,4.8,9,7c1.6,1.1,3.1-1.5,1.5-2.6c-2.9-2.1-5.7-4.3-8.4-6.5
					C30.7,76.3,28.6,78.4,30.1,79.6L30.1,79.6z"/>
			</g>
		</g>
		<g>
			<g>
				<path class="st2" d="M29.9,76.7c4.1,2.9,7.9,6.1,11.6,9.4c1.4,1.3,3.5-0.8,2.1-2.1c-3.9-3.6-8-6.9-12.2-9.9
					C29.8,73,28.3,75.6,29.9,76.7L29.9,76.7z"/>
			</g>
		</g>
		<g>
			<g>
				<path class="st2" d="M24.7,62.4c4.1,8,10.6,14.4,15.9,21.6c1.1,1.5,3.7,0,2.6-1.5C37.8,75.4,31.4,69,27.3,60.9
					C26.4,59.2,23.8,60.7,24.7,62.4L24.7,62.4z"/>
			</g>
		</g>
		<g>
			<g>
				<path class="st2" d="M27,62.9c0.2,0.1,0.4,0.2,0.6,0.3c0.1,0.1,0.2,0.1,0.3,0.2c-0.2-0.1,0.1,0.1,0.1,0.1
					c0.4,0.4,0.6,0.6,0.8,0.9c0.4,0.7,1.3,1,2.1,0.5c0.7-0.4,1-1.4,0.5-2.1c-0.7-1.1-1.7-2.1-2.9-2.6c-0.7-0.3-1.6-0.2-2.1,0.5
					C26.1,61.5,26.3,62.6,27,62.9L27,62.9z"/>
			</g>
		</g>
		<g>
			<g>
				<path class="st2" d="M27.1,62.3c2.6,1.7,5,3.9,6.9,6.4c1.1,1.5,3.8,0,2.6-1.5c-2.2-3-4.9-5.5-8-7.5C27,58.7,25.5,61.3,27.1,62.3
					L27.1,62.3z"/>
			</g>
		</g>
		<g>
			<g>
				<path class="st2" d="M27.3,61.8c5.7,5.4,10.6,11.4,14.8,18c1,1.6,3.6,0.1,2.6-1.5c-4.3-6.8-9.4-13-15.3-18.6
					C28,58.4,25.9,60.5,27.3,61.8L27.3,61.8z"/>
			</g>
		</g>
		<g>
			<g>
				<path class="st2" d="M28.7,66.4c4.2,4.9,8.5,9.8,12.7,14.7c0.7-0.7,1.4-1.4,2.1-2.1c-0.7-0.7-1.5-1.3-2.2-2
					c-1.4-1.3-3.6,0.8-2.1,2.1c0.7,0.7,1.5,1.3,2.2,2c1.4,1.3,3.4-0.7,2.1-2.1c-4.2-4.9-8.5-9.8-12.7-14.7
					C29.6,62.8,27.5,65,28.7,66.4L28.7,66.4z"/>
			</g>
		</g>
		<g>
			<g>
				<path class="st2" d="M31.7,68.6c3.8,4.9,7.6,9.7,11.4,14.6c1,1.3,3.4-0.5,2.4-1.8c-1.1-1.5-2.3-2.8-3.7-4
					c-1.5-1.3-3.6,0.9-2.1,2.1c1.2,1,2.3,2.1,3.2,3.4c0.8-0.6,1.6-1.2,2.4-1.8c-3.8-4.9-7.6-9.7-11.4-14.6
					C32.6,65,30.5,67.1,31.7,68.6L31.7,68.6z"/>
			</g>
		</g>
		<g>
			<g>
				<path class="st2" d="M21.3,32.1c0.4,7.8,2.7,15.2,6.8,21.8c1,1.6,3.6,0.1,2.6-1.5c-3.9-6.2-6-13-6.4-20.3
					C24.2,30.2,21.2,30.2,21.3,32.1L21.3,32.1z"/>
			</g>
		</g>
		<g>
			<g>
				<path class="st2" d="M25.9,50.1C28.4,56.8,32.4,63,36,69.2c1,1.7,3.5,0.2,2.6-1.5c-3.4-6-7.4-11.9-9.8-18.4
					C28.2,47.5,25.3,48.3,25.9,50.1L25.9,50.1z"/>
			</g>
		</g>
		<g>
			<g>
				<path class="st2" d="M22.7,31.6c1.9,3.2,3.4,6.5,4.6,9.9c0.6,1.8,3.5,1,2.9-0.8c-1.3-3.7-2.9-7.3-4.9-10.7
					C24.3,28.4,21.7,29.9,22.7,31.6L22.7,31.6z"/>
			</g>
		</g>
		<g>
			<g>
				<path class="st2" d="M23.8,32.9c3,5.2,4.8,10.8,7.7,16.1c0.9,1.7,3.5,0.2,2.6-1.5c-2.8-5.2-4.7-10.9-7.7-16.1
					C25.4,29.7,22.8,31.2,23.8,32.9L23.8,32.9z"/>
			</g>
		</g>
		<g>
			<g>
				<path class="st2" d="M29.1,42.3c1.5,3.2,3.6,5.9,5.8,8.6c1.2,1.5,3.3-0.6,2.1-2.1c-2-2.5-3.9-5.1-5.4-8
					C30.9,39,28.3,40.6,29.1,42.3L29.1,42.3z"/>
			</g>
		</g>
		<g>
			<g>
				<path class="st2" d="M29.5,43c2.1,3,4.2,5.8,6.6,8.5c1.3,1.5,3.4-0.7,2.1-2.1c-2.2-2.6-4.2-5.1-6.1-7.9
					C31,39.9,28.4,41.4,29.5,43L29.5,43z"/>
			</g>
		</g>
		<g>
			<g>
				<path class="st2" d="M22.4,35.1c3.3,6.7,7,13.2,11,19.6c0.8-0.6,1.6-1.2,2.4-1.8c-3.3-3.8-6.4-7.5-7.9-12.4
					c-0.9,0.4-1.8,0.8-2.7,1.2c2.8,6.2,6.4,12.1,9.4,18.3c0.8-0.6,1.6-1.2,2.4-1.8c-4.1-4.4-6.8-9.4-8.3-15.2
					c-1,0.3-1.9,0.5-2.9,0.8c2.9,7.4,6.1,14.7,10.8,21.2c1.1,1.6,3.7,0.1,2.6-1.5C34.5,57,31.4,50,28.6,42.8
					c-0.7-1.8-3.4-1.1-2.9,0.8c1.6,6.3,4.6,11.8,9,16.5c1.2,1.3,3.1-0.4,2.4-1.8c-3-6.2-6.5-12-9.4-18.3c-0.7-1.6-3.2-0.5-2.7,1.2
					c1.6,5.4,5,9.6,8.7,13.7c1.1,1.3,3.3-0.4,2.4-1.8c-4-6.3-7.7-12.8-11-19.6C24.1,31.8,21.5,33.4,22.4,35.1L22.4,35.1z"/>
			</g>
		</g>
		<g>
			<g>
				<path class="st2" d="M35.5,53.1c1.6,1.3,2.7,2.8,3.7,4.6c0.9-0.5,1.7-1,2.6-1.5c-1-1.6-2-3.1-3.1-4.7c-0.8,0.6-1.6,1.2-2.4,1.8
					c1.2,1.2,2.3,2.4,3.3,3.8c1.1,1.5,3.7,0.1,2.6-1.5s-2.2-3.1-3.3-4.7c-0.8,0.6-1.6,1.2-2.4,1.8c2,2.4,4,4.8,6,7.2
					c0.7-0.7,1.4-1.4,2.1-2.1c-0.8-0.9-1.5-1.7-2.3-2.6c-0.7,0.7-1.4,1.4-2.1,2.1c2.9,2.9,5.6,5.9,8.2,9c0.7-0.7,1.4-1.4,2.1-2.1
					c-0.9-0.7-1.8-1.5-2.6-2.4c-0.7,0.7-1.4,1.4-2.1,2.1c1.6,1.5,2.8,2.8,4.1,4.7c0.7-0.7,1.4-1.4,2.1-2.1c-4-2.7-7.1-5.8-9.8-9.8
					c-0.8,0.6-1.6,1.2-2.4,1.8c2.4,2.7,4.5,5.6,6.5,8.6c0.8-0.6,1.6-1.2,2.4-1.8c-4.9-4.5-9.5-9-12.9-14.8c-0.8,0.6-1.6,1.2-2.4,1.8
					c4.6,5.5,9,11.3,13.2,17.2c0.8-0.6,1.6-1.2,2.4-1.8c-5.4-5.2-12.5-11.2-13.8-19c-0.9,0.4-1.8,0.8-2.7,1.2
					c4.5,6.4,8.9,12.8,13.2,19.3c0.8-0.6,1.6-1.2,2.4-1.8c-5.1-4.5-10.8-9.4-13.2-16c-0.9,0.4-1.8,0.8-2.7,1.2
					c4.5,6.4,9.6,12.7,13.2,19.6c0.8-0.6,1.6-1.2,2.4-1.8c-4.8-4-8.6-8.6-11.5-14c-0.8,0.6-1.6,1.2-2.4,1.8
					c4.1,5.1,7.3,11,10.8,16.4c0.8-0.6,1.6-1.2,2.4-1.8c-4.1-3.2-7.3-7-9.8-11.6c-0.9-1.7-3.5-0.2-2.6,1.5c2.1,4,3.9,8.1,5.5,12.3
					c0.9-0.4,1.8-0.8,2.7-1.2c-1.8-2.9-3.3-5.8-4-9.2c-0.7,0.6-1.5,1.1-2.2,1.7c2.4,1.3,4.4,8.5,5.5,10.9c0.9-0.5,1.7-1,2.6-1.5
					c-1.1-1.9-1.9-3.5-2.6-5.7c-0.8,0.5-1.7,1-2.5,1.5c2,2.2,2.9,5,5.1,7.1c1.2,1.1,3.3-0.4,2.4-1.8c-1.6-2.4-3-4.6-3.5-7.5
					c-0.7,0.6-1.5,1.1-2.2,1.7c2.3,1.3,3.9,3.8,5.5,5.8c1.1,1.4,3.1-0.4,2.4-1.8c-0.9-1.8-3.1-4.9-3-6.9c-0.5,0.5-1,1-1.5,1.5
					c1.2-0.2,2.9,2.8,3.7,3.5c1.2,1.2,3.1-0.3,2.4-1.8c-0.9-1.7-1.6-3.4-2-5.3c-0.8,0.5-1.7,1-2.5,1.5c1,0.6,1.8,1.5,2.3,2.7
					c0.9,1.7,3.4,0.2,2.6-1.5c-0.5-1-1-2.1-1.5-3.1c-0.8,0.6-1.6,1.2-2.4,1.8c1.1,0.8,1.9,1.8,2.5,3c1,1.7,3.6,0.2,2.6-1.5
					c-0.8-1.4-1.7-2.5-2.9-3.6c-1.3-1.2-3.1,0.3-2.4,1.8c0.5,1,1,2.1,1.5,3.1c0.9-0.5,1.7-1,2.6-1.5c-0.7-1.4-1.5-2.3-2.7-3.3
					c-1.2-0.9-2.8-0.1-2.5,1.5c0.4,2.2,1.2,4,2.3,6c0.8-0.6,1.6-1.2,2.4-1.8c-1.7-1.6-3.1-4.8-5.8-4.4c-0.8,0.1-1.4,0.6-1.5,1.5
					c-0.2,2.8,2.2,6,3.4,8.4c0.8-0.6,1.6-1.2,2.4-1.8c-1.9-2.2-3.5-4.8-6.1-6.2c-1.2-0.7-2.4,0.4-2.2,1.7c0.5,3.1,2,5.6,3.8,8.2
					c0.8-0.6,1.6-1.2,2.4-1.8c-2.1-2.1-3.1-4.9-5.1-7.1c-1-1.1-2.9,0-2.5,1.5c0.7,2.3,1.7,4.3,2.9,6.4c1,1.7,3.3,0.2,2.6-1.5
					c-1.5-3.5-3-10.1-6.5-12c-1.2-0.6-2.5,0.4-2.2,1.7c0.8,3.6,2.4,6.7,4.3,9.9c0.8,1.4,3.4,0.5,2.7-1.2c-1.7-4.4-3.5-8.8-5.8-13
					c-0.9,0.5-1.7,1-2.6,1.5c2.6,4.8,6,8.8,10.3,12.2c1.2,1,3.4-0.3,2.4-1.8c-3.6-5.7-7-11.7-11.2-17c-1.1-1.4-3.1,0.4-2.4,1.8
					c3.1,5.7,7,10.5,12,14.7c1.3,1.1,3.2-0.2,2.4-1.8c-3.6-6.9-8.8-13.2-13.2-19.6c-0.9-1.3-3.4-0.6-2.7,1.2
					c2.6,7.2,8.4,12.4,14,17.3c1.2,1.1,3.3-0.3,2.4-1.8c-4.3-6.5-8.7-12.9-13.2-19.3c-1-1.4-3-0.5-2.7,1.2
					c1.4,8.3,8.8,14.8,14.6,20.3c1.2,1.1,3.4-0.4,2.4-1.8c-4.3-6.1-8.9-12-13.7-17.8c-1.1-1.3-3.2,0.4-2.4,1.8
					c3.5,6,8.3,10.7,13.4,15.4c1.2,1.1,3.3-0.3,2.4-1.8c-2.1-3.2-4.4-6.3-7-9.2c-1.1-1.3-3.3,0.4-2.4,1.8c2.9,4.4,6.5,7.9,10.9,10.8
					c1.2,0.8,2.9-0.8,2.1-2.1c-1.3-2-2.8-3.7-4.6-5.3c-1.4-1.3-3.5,0.8-2.1,2.1c0.8,0.8,1.7,1.6,2.6,2.4c1.5,1.3,3.4-0.6,2.1-2.1
					c-2.6-3.1-5.3-6.1-8.2-9c-2.3-1.6-4.3,0.5-3,1.9c0.8,0.9,1.5,1.7,2.3,2.6c1.3,1.5,3.3-0.7,2.1-2.1c-2-2.4-4-4.8-6-7.2
					c-1.1-1.3-3.3,0.4-2.4,1.8c1.1,1.6,2.2,3.1,3.3,4.7c0.9-0.5,1.7-1,2.6-1.5c-1.2-1.6-2.4-3-3.7-4.4c-1.2-1.2-3.3,0.4-2.4,1.8
					c1,1.6,2,3.1,3.1,4.7c1.1,1.6,3.5,0.2,2.6-1.5c-1.1-2.2-2.3-3.7-4.1-5.2C36.2,49.8,34.1,51.9,35.5,53.1L35.5,53.1z"/>
			</g>
		</g>
		<g>
			<g>
				<path class="st3" d="M60.3,105.5c1.2-4.6,1.8-9.3,1.8-14.1c0-1.3-2-1.3-2,0c0,4.6-0.6,9.1-1.7,13.6
					C58.1,106.2,60,106.7,60.3,105.5L60.3,105.5z"/>
			</g>
		</g>
		<g>
			<g>
				<path class="st3" d="M48.2,64.2c-2.8-3.1-5.6-6.1-8.3-9.2c-0.9-1-2.3,0.5-1.4,1.4c2.8,3.1,5.6,6.1,8.3,9.2
					C47.6,66.6,49,65.1,48.2,64.2L48.2,64.2z"/>
			</g>
		</g>
		<g>
			<g>
				<path class="st3" d="M34.5,49.5c-3.3-4.2-5.6-8.9-7.2-13.9c-0.4-1.2-2.3-0.7-1.9,0.5c1.6,5.4,4.2,10.4,7.7,14.8
					C33.9,52,35.3,50.5,34.5,49.5L34.5,49.5z"/>
			</g>
		</g>
	</g>
	<g id="Слой_16">
		<g>
			<g>
				<path class="st4" d="M45.8,101.2c-0.7-5,0-9.9,2.1-14.5c-0.3,0-0.6-0.1-0.9-0.1c0.4,1.6-0.4,3.6-0.7,5.2
					c-0.3,1.5-0.6,2.9-0.9,4.4c-0.6,2.9-1.3,5.8-1.9,8.8c-0.1,0.6,0.8,0.9,1,0.3c2.1-7.5,4.7-14.8,7.7-21.9
					c-0.3-0.1-0.6-0.3-0.9-0.4c-1.6,6-3.3,12-5.4,18c-0.2,0.6,0.8,0.9,1,0.3c2.1-5.9,3.9-12,5.3-18.1c0.1-0.5-0.7-0.9-0.9-0.4
					c-3.1,7.2-5.7,14.6-7.8,22.1c0.3,0.1,0.6,0.2,1,0.3c0.8-3.6,1.5-7.1,2.3-10.7c0.5-2.5,1.9-5.6,1.3-8.2c-0.1-0.4-0.7-0.5-0.9-0.1
					C45.1,91,44.3,96,45,101.3C44.9,101.8,45.9,101.8,45.8,101.2L45.8,101.2z"/>
			</g>
		</g>
		<g>
			<g>
				<path class="st4" d="M49.4,100.8c1.5-8.1,4.6-15.4,9.4-22.2c-2.3-1.3-4.6-2.7-6.9-4c-2.5,5.6-5,11.3-7.5,16.9
					c2.4,1,4.9,2.1,7.3,3.1c2.9-7.2,7-13.9,12.1-19.9c-2.1-1.6-4.2-3.2-6.3-4.8c-0.9,1.8-2,3.4-3.1,5c-3.1,4.2,3.9,8.1,6.9,4
					c1.2-1.6,2.2-3.2,3.1-5c2-3.8-3.2-8.5-6.3-4.8c-6,7.1-10.6,14.8-14.1,23.4c-1.7,4.2,5.5,7.2,7.3,3.1c2.5-5.6,5-11.3,7.5-16.9
					c2.1-4.7-3.9-8.3-6.9-4c-5.1,7.3-8.5,15.4-10.2,24.1C40.7,103.7,48.5,105.9,49.4,100.8L49.4,100.8z"/>
			</g>
		</g>
		<g>
			<g>
				<path class="st4" d="M38.8,94.2c0,3.6,0.1,7.2,1.9,10.4c0.9,1.7,3.5,0.2,2.6-1.5c-1.5-2.7-1.5-5.8-1.5-8.9
					C41.9,92.3,38.9,92.3,38.8,94.2L38.8,94.2z"/>
			</g>
		</g>
		<g>
			<g>
				<path class="st4" d="M41.9,104.5c0.1,0.3,0.1,0.7,0.2,1c0.3,1.8,2.8,1.2,2.9-0.4c0.1-1,0-2.3,0.5-3.1c-0.9-0.1-1.8-0.2-2.7-0.4
					c0.2,1.6-0.1,3.4-0.2,5c-0.1,1.9,2.8,1.9,3,0c0.2-2,0.8-3.8,1.8-5.5c-0.9-0.1-1.8-0.2-2.7-0.4c0.4,1.1-0.5,3.8-0.7,4.9
					c-0.3,1.9,2.3,2.7,2.9,0.8c0.5-1.7,1-3.5,1.9-5.2c-0.9-0.4-1.8-0.8-2.7-1.2c-0.5,1.6-0.9,3.3-1.4,4.9c-0.5,1.9,2.3,2.6,2.9,0.8
					c0.7-2.3,1.5-4.5,2.8-6.4c-0.9-0.4-1.8-0.8-2.7-1.2c-0.7,1.8-1.3,3.6-2,5.4c1,0.3,1.9,0.5,2.9,0.8c0.9-2.6,1.8-5.2,2.8-7.8
					c0.6-1.6-1.9-2.6-2.7-1.2c-0.1,0.1-0.1,0.2-0.2,0.4c-0.9,1.7,1.6,3.2,2.6,1.5c0.1-0.1,0.1-0.2,0.2-0.4c-0.9-0.4-1.8-0.8-2.7-1.2
					c-1,2.6-1.9,5.2-2.8,7.8c-0.6,1.8,2.2,2.6,2.9,0.8c0.7-1.8,1.3-3.6,2-5.4c0.6-1.7-1.8-2.5-2.7-1.2c-1.5,2.2-2.4,4.6-3.1,7.1
					c1,0.3,1.9,0.5,2.9,0.8c0.5-1.6,0.9-3.3,1.4-4.9s-1.9-2.7-2.7-1.2c-1,1.8-1.5,3.9-2.2,5.9c1,0.3,1.9,0.5,2.9,0.8
					c0.3-1.8,1.4-4.8,0.7-6.5c-0.5-1.1-2-1.6-2.7-0.4c-1.3,2.2-2,4.5-2.2,7c1,0,2,0,3,0c0.1-1.9,0.4-3.9,0.1-5.8
					c-0.2-1.3-2.2-1.4-2.7-0.4c-0.8,1.4-0.8,3.1-0.9,4.7c1-0.1,2-0.3,2.9-0.4c-0.1-0.3-0.1-0.7-0.2-1
					C44.4,101.8,41.5,102.6,41.9,104.5L41.9,104.5z"/>
			</g>
		</g>
		<g>
			<g>
				<path class="st4" d="M41.2,104.9c0.9,1.9,2,3.7,3.2,5.4c1.1,1.6,3.7,0.1,2.6-1.5c-1.2-1.7-2.3-3.5-3.2-5.4
					C43,101.7,40.4,103.2,41.2,104.9L41.2,104.9z"/>
			</g>
		</g>
		<g>
			<g>
				<path class="st4" d="M43.6,108.9c0.3,0.6,0.5,1.3,0.8,1.9c0.3-0.2,0.6-0.3,0.9-0.5c-0.5-1-1.1-1.9-1.6-2.9
					c-0.3,0.2-0.6,0.3-0.9,0.5c1,1.6,2,3.2,3,4.8c0.4,0.5,1.2,0.1,0.9-0.5c-0.2-0.3-0.3-0.6-0.5-0.9c-0.3,0.2-0.5,0.4-0.8,0.6
					c0.4,0.5,0.8,1,1.2,1.6c0.3-0.2,0.5-0.4,0.8-0.6c-0.3-0.3-0.5-0.6-0.7-1c-0.3-0.5-1.1-0.2-0.9,0.4c0.1,0.3,0.2,0.7,0.4,1
					c0.3-0.1,0.6-0.2,1-0.3c-0.4-1-0.8-2-1.2-3.1c-0.3,0.1-0.6,0.2-1,0.3c0.5,1.1,0.9,2.2,1.4,3.3c0.2,0.5,1,0.5,1-0.1
					c-0.1-1.7-0.3-3.5-0.1-5.2c-0.3,0-0.7-0.1-1-0.1c0.1,1.2,0.2,2.4,0.2,3.6c0,0.6,1,0.6,1,0c0-2.4,0.1-4.9,0.6-7.3
					c-0.3-0.1-0.6-0.2-1-0.3c-0.2,1.7-0.6,3.4-1,5c0.3,0.1,0.6,0.2,1,0.3c0.2-1.5,0.5-3,0.7-4.5c0.1-0.6-0.7-0.9-1-0.3
					c-0.5,1.3-1,2.6-1.6,3.9c0.3,0,0.7,0.1,1,0.1c0-1.1,0.1-2.2,0.5-3.3c-0.3,0-0.7-0.1-1-0.1c-0.2,1.3-0.5,2.4-0.9,3.6
					c-0.2,0.6,0.8,0.9,1,0.3c0.4-1.3,0.7-2.6,0.9-3.9c0.1-0.6-0.8-0.6-1-0.1c-0.4,1.2-0.6,2.3-0.5,3.5c0,0.6,0.8,0.6,1,0.1
					c0.5-1.3,1-2.6,1.6-3.9c-0.3-0.1-0.6-0.2-1-0.3c-0.2,1.5-0.5,3-0.7,4.5c-0.1,0.6,0.8,0.9,1,0.3c0.4-1.7,0.8-3.3,1-5
					c0.1-0.6-0.8-0.9-1-0.3c-0.5,2.5-0.6,5-0.6,7.5c0.3,0,0.7,0,1,0c0-1.2-0.1-2.4-0.2-3.6c-0.1-0.5-0.9-0.7-1-0.1
					c-0.3,1.8-0.1,3.6,0,5.4c0.3,0,0.7-0.1,1-0.1c-0.5-1.1-0.9-2.2-1.4-3.3c-0.2-0.6-1.2-0.3-1,0.3c0.4,1,0.8,2,1.2,3.1
					c0.2,0.6,1.2,0.3,1-0.3c-0.1-0.3-0.2-0.7-0.4-1c-0.3,0.1-0.6,0.3-0.9,0.4c0.2,0.5,0.5,0.8,0.8,1.2c0.4,0.4,1.1-0.1,0.8-0.6
					c-0.4-0.6-0.8-1.2-1.3-1.8c-0.4-0.4-1.1,0.1-0.8,0.6c0.2,0.3,0.3,0.6,0.5,0.9c0.3-0.2,0.6-0.3,0.9-0.5c-1.1-1.6-2.1-3.1-3-4.8
					c-0.3-0.6-1.2-0.1-0.9,0.5c0.5,1,1.1,1.9,1.6,2.9c0.3,0.6,1.1,0.1,0.9-0.5c-0.3-0.6-0.5-1.3-0.8-1.9
					C44.2,107.8,43.3,108.3,43.6,108.9L43.6,108.9z"/>
			</g>
		</g>
		<g>
			<g>
				<path class="st4" d="M50.7,99.2c1.3-2.5,2.8-5,4.4-7.4c0.4-0.5-0.5-1-0.9-0.5c-1.6,2.4-3,4.9-4.4,7.4
					C49.6,99.3,50.4,99.8,50.7,99.2L50.7,99.2z"/>
			</g>
		</g>
		<g>
			<g>
				<path class="st4" d="M53.7,95.7c1.8-2.2,3.8-3.9,6-5.7c0.5-0.4-0.2-1.1-0.7-0.7c-2.2,1.8-4.2,3.6-6,5.7
					C52.6,95.5,53.3,96.2,53.7,95.7L53.7,95.7z"/>
			</g>
		</g>
		<g>
			<g>
				<path class="st4" d="M52.6,95.6c1.9-2.1,3.4-4.5,5.4-6.4c-0.2-0.2-0.5-0.5-0.7-0.7c-1.7,1.8-3.3,3.8-4.8,5.8
					c0.3,0.2,0.5,0.4,0.8,0.6c1.1-1.7,2.2-3.3,3.4-5c0.3-0.5-0.4-1-0.8-0.6c-2.2,2-3.7,4.6-5.5,6.9c0.3,0.2,0.5,0.4,0.8,0.6
					c0.3-0.8,0.7-1.6,1.2-2.3c0.3-0.6-0.5-1.1-0.9-0.5c-0.4,0.8-0.8,1.5-1.2,2.3c-0.2,0.5,0.4,1.1,0.8,0.6c1.8-2.3,3.3-4.9,5.5-6.9
					c-0.3-0.2-0.5-0.4-0.8-0.6c-1.2,1.6-2.3,3.3-3.4,5c-0.3,0.5,0.4,1.1,0.8,0.6c1.5-2,3.1-4,4.8-5.8c0.4-0.5-0.2-1.2-0.7-0.7
					c-2,2-3.6,4.3-5.4,6.4C51.5,95.4,52.2,96.1,52.6,95.6L52.6,95.6z"/>
			</g>
		</g>
		<g>
			<g>
				<path class="st4" d="M52.6,95.2c2.2-2.9,4.5-5.6,7-8.2c1.8-1.9-1-4.7-2.8-2.8c-2.7,2.9-5.3,5.9-7.6,9
					C47.6,95.2,51.1,97.2,52.6,95.2L52.6,95.2z"/>
			</g>
		</g>
		<g>
			<g>
				<path class="st4" d="M55.8,93.1c2.3-3,5-5.7,7.9-8.1c2-1.7-0.9-4.5-2.8-2.8c-3.2,2.7-6,5.7-8.5,9C50.8,93.1,54.2,95.1,55.8,93.1
					L55.8,93.1z"/>
			</g>
		</g>
		<g>
			<g>
				<path class="st4" d="M58.3,89.8c3.9-1.5,7.6-4.8,10.7-7.6c1.9-1.7-0.9-4.6-2.8-2.8c-1.4,1.3-2.8,2.4-4.3,3.5
					c-1.4,1.1-2.9,2.4-4.6,3C54.8,86.8,55.9,90.7,58.3,89.8L58.3,89.8z"/>
			</g>
		</g>
		<g>
			<g>
				<path class="st4" d="M67.8,83.2c1.4-1,2.5-2.3,3.8-3.4c0.6-0.5,1.2-0.9,1.8-1.4c0.3-0.2,0.6-0.5,0.8-0.8
					c0.3-0.3,0.9-0.6,0.2-0.5c-0.5-1.1-0.9-2.3-1.4-3.4c-0.6,0.8-1.3,1.5-2.1,2.1c-2,1.5,0,5,2,3.5c1.1-0.8,2.1-1.7,3-2.7
					c1-1.2,0.5-3.6-1.4-3.4c-2,0.2-2.8,1.7-4.3,2.8c-1.5,1.1-2.7,2.7-4.3,3.8C63.7,81.2,65.7,84.6,67.8,83.2L67.8,83.2z"/>
			</g>
		</g>
		<g>
			<g>
				<path class="st4" d="M65.6,85.4c2-0.5,3.5-1.9,5-3.3c1.7-1.5,3.2-3.1,4.3-5c1.3-2.2-2.2-4.3-3.5-2c-0.9,1.5-2,2.7-3.2,3.8
					c-1.1,1-2.2,2.2-3.7,2.6C62,82.2,63.1,86.1,65.6,85.4L65.6,85.4z"/>
			</g>
		</g>
		<g>
			<g>
				<path class="st4" d="M72.6,80c1-0.4,1.9-1,2.4-2.1c0.5-0.9,0.3-2.2-0.7-2.7C73.4,74.8,72,75,71.5,76c0,0.1-0.1,0.2-0.1,0.3
					c-0.2,0.3,0.2-0.1,0,0c-0.1,0.1-0.3,0.1-0.1,0.1c0.4-0.1-0.5,0.2,0.2-0.1c-0.5,0.2-0.9,0.4-1.2,0.9c-0.3,0.4-0.4,1.1-0.2,1.5
					C70.4,79.6,71.5,80.5,72.6,80L72.6,80z"/>
			</g>
		</g>
		<g>
			<g>
				<path class="st4" d="M60.3,85.7c3.1-2.8,6.1-5.8,8.9-8.9c1.7-1.9-1-4.7-2.8-2.8c-2.1,2.1-4.1,4.3-6,6.5c-1.6,1.9,1,4.7,2.8,2.8
					c1.8-1.8,3.5-3.8,4.9-5.9c1.1-1.7-1.1-3.8-2.7-2.7c-3.3,2-5.4,5.4-8.6,7.6c1,0.6,2,1.2,3,1.7c0.3-3.5,3.6-7,6.1-9.1
					c-1-0.8-2.1-1.6-3.1-2.4c-2.4,3.1-4.6,6.4-7.3,9.2c1.1,0.5,2.3,0.9,3.4,1.4c0-0.3,0-0.5,0-0.8c0.6-2.5-3.3-3.6-3.9-1.1
					c-0.2,0.7-0.2,1.1-0.1,1.9c0.2,1.6,2.1,2.8,3.4,1.4c2.9-3.1,5.4-6.7,7.9-10c1.5-1.9-1.5-3.8-3.1-2.4c-3.5,3-6.9,7.3-7.3,12
					c-0.1,1.5,1.8,2.6,3,1.7c3.1-2.2,5.3-5.6,8.6-7.6c-0.9-0.9-1.8-1.8-2.7-2.7c-1.2,1.9-2.6,3.6-4.2,5.1c0.9,0.9,1.9,1.9,2.8,2.8
					c1.9-2.3,3.9-4.4,6-6.5c-0.9-0.9-1.9-1.9-2.8-2.8c-2.8,3.1-5.8,6.1-8.9,8.9C55.6,84.6,58.4,87.5,60.3,85.7L60.3,85.7z"/>
			</g>
		</g>
		<g>
			<g>
				<path class="st4" d="M44.6,97.9c0.6-5,2.4-9.5,5.1-13.7c1.4-2.2-2.1-4.2-3.5-2c-3.1,4.8-4.9,10.1-5.7,15.7
					C40.3,100.4,44.3,100.4,44.6,97.9L44.6,97.9z"/>
			</g>
		</g>
		<g>
			<g>
				<path class="st4" d="M43.4,94.3c1.2-8,4.1-16.6,9.7-22.6c1.8-1.9-1.1-4.7-2.8-2.8c-6.1,6.5-9.5,15.7-10.8,24.4
					C39.2,95.8,43,96.9,43.4,94.3L43.4,94.3z"/>
			</g>
		</g>
		<g>
			<g>
				<path class="st4" d="M47.2,85.8c3.1-4.8,6.3-9.5,9.7-14.1c1.5-2.1-1.9-4.1-3.5-2c-3.4,4.6-6.6,9.3-9.7,14.1
					C42.4,86,45.8,88,47.2,85.8L47.2,85.8z"/>
			</g>
		</g>
		<g>
			<g>
				<path class="st4" d="M51.5,73.3c1.3-1.5,2.1-3.2,3.1-4.9c1.1-1.7,2.5-3.1,4-4.4c2-1.6-0.9-4.4-2.8-2.8c-1.5,1.2-2.8,2.7-4,4.2
					c-1.2,1.6-1.9,3.5-3.2,5.1C47,72.5,49.8,75.3,51.5,73.3L51.5,73.3z"/>
			</g>
		</g>
		<g>
			<g>
				<path class="st4" d="M54,73.2c1.8-2.6,3.9-4.9,6.3-6.9c-1-0.8-2.1-1.6-3.1-2.4c-1.6,3.5-4.3,6.8-6.4,10.1
					c-1.3,1.9,1.6,4,3.1,2.4c2.5-2.6,4.6-5.7,7.7-7.6c-1-0.6-2-1.2-3-1.7c-0.2,1.5-2.6,4.1-3.4,5.4c-1.3,1.9,1.5,4,3.1,2.4
					c1.5-1.4,3-2.8,4.5-4.1c1.4-1.2,3.1-3.2,4.8-3.7c2.5-0.7,1.4-4.5-1.1-3.9c-1.9,0.5-3.4,2-4.9,3.2c-2.1,1.8-4.2,3.6-6.2,5.6
					c1,0.8,2.1,1.6,3.1,2.4c1.5-2.3,3.6-4.6,4-7.4c0.2-1.5-1.8-2.4-3-1.7c-3.5,2.1-5.8,5.3-8.6,8.2c1,0.8,2.1,1.6,3.1,2.4
					c2.1-3.3,4.8-6.5,6.4-10.1c1-2.1-1.4-3.9-3.1-2.4c-2.7,2.2-5,4.8-6.9,7.7C49.1,73.3,52.6,75.3,54,73.2L54,73.2z"/>
			</g>
		</g>
		<g>
			<g>
				<path class="st4" d="M63,75c3.2-3,6.5-5.9,9.9-8.7c2-1.6-0.8-4.4-2.8-2.8c-3.4,2.8-6.7,5.7-9.9,8.7C58.3,74,61.1,76.8,63,75
					L63,75z"/>
			</g>
		</g>
		<g>
			<g>
				<path class="st4" d="M73.5,66c0.7-0.4,1.4-0.9,2-1.4c0.2-0.2,0.5-0.4,0.7-0.7c0.1-0.1,0.3-0.3,0.4-0.4c0.1-0.1,0.4-0.3,0.1-0.2
					c-0.5,0.1-1,0.1-1.5,0.2c0.1,0,0.1,0,0.2,0.1c-0.4-0.3-0.8-0.6-1.2-0.9c-0.1-0.2,0,0.2,0,0.2c0,0.1,0,0.3,0,0.5
					c-0.1,1.1,1,2,2,2c1.2,0,1.9-0.9,2-2c0.1-0.8-0.1-1.9-0.5-2.6c-0.6-1.1-2-1.4-3.1-0.8c-0.6,0.4-1,1-1.5,1.5s-0.9,0.8-1.5,1.1
					c-0.9,0.5-1.3,1.8-0.7,2.7C71.3,66.2,72.6,66.5,73.5,66L73.5,66z"/>
			</g>
		</g>
		<g>
			<g>
				<path class="st4" d="M74.7,62c-0.7,2.1-2.7,4-4,5.7c-1.5,2.1-3.1,4.1-4.6,6.2s1.9,4.1,3.5,2c1.7-2.3,3.5-4.6,5.2-7
					c1.4-1.9,3-3.7,3.8-5.9C79.4,60.7,75.6,59.6,74.7,62L74.7,62z"/>
			</g>
		</g>
		<g>
			<g>
				<path class="st4" d="M70.8,67.7c-1.3,2.2-2.8,4.4-4.4,6.4c-0.7,0.9-0.1,2.2,0.7,2.7c1,0.6,2.1,0.1,2.7-0.7
					c1.6-2.1,3-4.2,4.4-6.4C75.6,67.5,72.2,65.5,70.8,67.7L70.8,67.7z"/>
			</g>
		</g>
		<g>
			<g>
				<path class="st4" d="M67.9,67.4c-1.7,2.2-3.4,4.5-5.1,6.7c-1.4,1.8,1.7,4.2,3.1,2.4c2.1-2.7,4.3-5.3,6.4-8
					c1.6-2-1.1-4.8-2.8-2.8c-3,3.4-6,6.8-8.9,10.2c-1.7,1.9,1.1,4.8,2.8,2.8c3-3.4,6-6.8,8.9-10.2c-0.9-0.9-1.9-1.9-2.8-2.8
					c-2.1,2.7-4.3,5.3-6.4,8c1,0.8,2.1,1.6,3.1,2.4c1.7-2.2,3.4-4.5,5.1-6.7C72.9,67.4,69.4,65.4,67.9,67.4L67.9,67.4z"/>
			</g>
		</g>
		<g>
			<g>
				<path class="st4" d="M64.6,51.4c-2.1,2.7-4.8,4.7-7,7.3c-1.7,2,1.2,4.8,2.8,2.8c1.1-1.3,2.4-2.3,3.6-3.6c1.4-1.5,2.7-2.9,4-4.5
					c0.7-0.9,0.1-2.2-0.7-2.7C66.3,50.1,65.3,50.6,64.6,51.4L64.6,51.4z"/>
			</g>
		</g>
		<g>
			<g>
				<path class="st4" d="M60.6,64.3c2.6-4.1,5.5-7.9,8.8-11.4c-1-0.8-2.1-1.6-3.1-2.4c-1.2,2.3-3,4.4-4.4,6.7
					c-1.5,2.6-2.9,5.2-4.1,7.9c-1,2.3,2.4,4.4,3.5,2c2.4-5.4,5.5-11.3,10-15.2c-1-0.8-2.1-1.6-3.1-2.4c-3,5.2-6.5,10.1-8.1,16
					c-0.6,2.3,2.4,3.3,3.7,1.5c3.3-4.7,4.9-10.5,9.3-14.4c-1.1-0.6-2.2-1.3-3.3-1.9c-0.6,2.6-2.7,5.1-3.9,7.5
					c-1.2,2.4-2.2,4.8-3.2,7.3c-0.9,2.4,3,3.5,3.9,1.1c0.8-2.3,1.8-4.5,3-6.7c0.5-0.9,1-1.9,1.6-2.7c0.3-0.4,1.8-2.1,1.1-2.2
					c-0.6-0.8-1.3-1.7-1.9-2.5c-1.2,3.9-3.5,7.4-4.8,11.3c-0.8,2.5,3,3.5,3.9,1.1c1-3,2-6.7,4.5-8.9c-1.1-0.3-2.2-0.6-3.3-0.9
					c0.3,0.6-1.3,3.2-1.6,3.8c-0.6,1.5-1.3,3-2,4.4c1.2,0.5,2.4,1,3.7,1.5c0.7-2.9,1.9-5.4,3.5-7.9c1.4-2.2-2-4.2-3.5-2
					c-1.8,2.7-3.1,5.7-3.9,8.8c-0.5,2.1,2.7,3.7,3.7,1.5c1.1-2.4,2.2-4.7,3.2-7.1c0.5-1.2,1.4-2.8,0.8-4.2s-2.1-2-3.3-0.9
					c-2.9,2.6-4.3,7.1-5.5,10.7c1.3,0.4,2.6,0.7,3.9,1.1c1.3-3.9,3.6-7.4,4.8-11.3c0.4-1.3-0.7-2.4-1.9-2.5c-2.2-0.2-3.8,3-4.7,4.5
					c-1.9,3.1-3.4,6.5-4.7,10c1.3,0.4,2.6,0.7,3.9,1.1c1-2.9,2.4-5.7,3.8-8.4c1.1-2.1,2.7-4.1,3.2-6.4c0.5-2-1.9-3.3-3.3-1.9
					c-4.6,4.2-6.4,10.3-9.9,15.2c1.2,0.5,2.4,1,3.7,1.5c1.4-5.6,4.8-10.2,7.7-15.1c1.2-2-1.5-3.9-3.1-2.4c-4.7,4.1-8.1,10.4-10.6,16
					c1.2,0.7,2.3,1.3,3.5,2c1.2-2.7,2.6-5.4,4.1-7.9c1.4-2.3,3.1-4.3,4.4-6.7c1-1.9-1.5-4.1-3.1-2.4c-3.6,3.7-6.7,7.8-9.4,12.2
					C55.8,64.5,59.2,66.5,60.6,64.3L60.6,64.3z"/>
			</g>
		</g>
		<g>
			<g>
				<path class="st4" d="M70.5,52.3c0.4-1.2,0.9-2.2,1.8-3.2c-1-0.8-2.1-1.6-3.1-2.4c-0.8,1.1-1.5,2.1-2.3,3.2
					c1.2,0.7,2.3,1.3,3.5,2c1-2.1,2.8-3.5,4-5.4c1.6-2.4,2.9-5,4.2-7.5c1.2-2.3-2.3-4.3-3.5-2c-1.3,2.5-2.6,5.2-4.2,7.5
					c-1.3,1.9-3.1,3.3-4,5.4c-1.1,2.3,1.9,4.1,3.5,2c0.8-1.1,1.5-2.1,2.3-3.2c1.3-1.8-1.7-4.2-3.1-2.4c-1.3,1.6-2.1,3.1-2.8,5
					C65.8,53.7,69.7,54.8,70.5,52.3L70.5,52.3z"/>
			</g>
		</g>
		<g>
			<g>
				<path class="st4" d="M76.2,43.2c1.1-1.9,2.2-3.7,3.3-5.6c0.9-1.5,1.2-3.2,2-4.7c1.2-2.3-2.2-4.3-3.5-2c-0.8,1.5-1.2,3.2-2,4.7
					c-1.1,1.9-2.2,3.8-3.3,5.6C71.4,43.5,74.9,45.5,76.2,43.2L76.2,43.2z"/>
			</g>
		</g>
		<g>
			<g>
				<path class="st4" d="M77.2,32.4c-1.2,2-2.2,4.1-3.1,6.3c-0.4,1,0.4,2.2,1.4,2.5c1.1,0.3,2.1-0.4,2.5-1.4
					c0.7-1.8,1.7-3.6,2.7-5.3C82,32.2,78.5,30.2,77.2,32.4L77.2,32.4z"/>
			</g>
		</g>
		<g>
			<g>
				<path class="st4" d="M81.3,32.8C81.3,32.7,81.3,32.7,81.3,32.8c-0.4,0.1-0.9,0.3-1.3,0.5h0.1c-0.6-0.3-1.2-0.7-1.7-1
					c0.3,0.4-0.1,1.4-0.3,1.8c-0.3,0.7-0.8,1.4-1.2,2.1c-1.4,2.2,2.1,4.2,3.5,2c1.1-1.7,2-3.5,2-5.6c0-0.9-0.2-2-0.9-2.7
					c-0.8-0.8-2.2-0.8-3,0.1C76.7,31.8,79.5,34.7,81.3,32.8L81.3,32.8z"/>
			</g>
		</g>
		<g>
			<g>
				<path class="st4" d="M78.6,32.3c-0.1,3.1-1.2,6.7-2.2,9.7c-0.9,2.4,3,3.5,3.9,1.1c1.2-3.3,2.3-7.2,2.4-10.7
					C82.6,29.7,78.6,29.7,78.6,32.3L78.6,32.3z"/>
			</g>
		</g>
		<g>
			<g>
				<path class="st4" d="M78.4,35.8c-0.2,2.1-1.4,4-1.9,6.1c-0.6,2.2-0.9,4.5-2.3,6.3c-1.6,2,1.3,4.9,2.8,2.8
					c1.7-2.2,2.4-4.5,3.1-7.2s2-5.2,2.3-8C82.6,33.2,78.6,33.2,78.4,35.8L78.4,35.8z"/>
			</g>
		</g>
		<g>
			<g>
				<path class="st4" d="M72.8,60c1.6-2.9,3.5-5.8,4.6-8.9c0.9-2.4-3-3.5-3.9-1.1c-1,2.8-2.8,5.4-4.2,7.9
					C68.1,60.2,71.5,62.3,72.8,60L72.8,60z"/>
			</g>
		</g>
		<g>
			<g>
				<path class="st4" d="M75.3,56.2c1.5-3.3,3.3-6.5,3.6-10.1c0.2-2.6-3.8-2.5-4,0c-0.3,2.9-1.9,5.5-3.1,8.1
					C70.8,56.5,74.2,58.6,75.3,56.2L75.3,56.2z"/>
			</g>
		</g>
		<g>
			<g>
				<path class="st4" d="M74,52c1-2.8,2.2-5.5,3.5-8.2c1.1-2.3-2.2-4.3-3.5-2c-1.1,2.1-2.3,4.3-3.4,6.4c1.2,0.5,2.4,1,3.7,1.5
					c0.7-2.1,1.8-4,3-5.9c-1.2-0.5-2.4-1-3.7-1.5c-0.2,0.7-0.5,1.4-0.8,2.1c-1,2.4,2.9,3.4,3.9,1.1c0.3-0.7,0.5-1.4,0.8-2.1
					c0.7-2.3-2.4-3.4-3.7-1.5c-1.4,2.1-2.5,4.4-3.4,6.8c-0.8,2.1,2.6,3.5,3.7,1.5c1.1-2.1,2.3-4.3,3.4-6.4c-1.2-0.7-2.3-1.3-3.5-2
					c-1.4,3-2.8,6-3.9,9.2C69.3,53.3,73.1,54.4,74,52L74,52z"/>
			</g>
		</g>
		<g>
			<g>
				<path class="st2" d="M45,103.9c-1.9-3.6-1.4-8.6-1-12.5c0.1-1.3-1.9-1.3-2,0c-0.4,4.3-0.8,9.6,1.3,13.5
					C43.8,106.1,45.5,105,45,103.9L45,103.9z"/>
			</g>
		</g>
		<g>
			<g>
				<path class="st2" d="M45.4,83.6c3.1-6.8,7.2-12.8,12.5-18.1c0.9-0.9-0.5-2.3-1.4-1.4c-5.4,5.4-9.6,11.6-12.8,18.5
					C43.2,83.7,44.9,84.7,45.4,83.6L45.4,83.6z"/>
			</g>
		</g>
		<g>
			<g>
				<path class="st2" d="M63.1,60.1c3.8-3.8,7.2-8,10.2-12.5c0.7-1.1-1-2.1-1.7-1c-2.9,4.3-6.2,8.4-9.9,12.1
					C60.7,59.6,62.2,61,63.1,60.1L63.1,60.1z"/>
			</g>
		</g>
	</g>
	<g id="Слой_20">
		<g>
			<g>
				<path class="st5" d="M48.6,32.9c0.4,1.3,0.8,2.7,1.2,4c0.3,1,0.5,1.9,1.5,2.4c0.7,0.4,1.7,0.2,2.1-0.5c1-1.9,0.2-4.6-0.1-6.6
					c-1,0.3-1.9,0.5-2.9,0.8c0.4,1.5,0.9,2.9,1.5,4.4c0.5,1.2,1,2.7,2,3.5c0.9,0.7,2.7,0.4,2.6-1.1c0-0.1,0-0.3,0-0.4
					c-0.2-1.9-3.2-1.9-3,0c0,0.1,0,0.3,0,0.4c0.9-0.4,1.7-0.7,2.6-1.1c-0.8-0.7-1.2-2.2-1.6-3.2c-0.4-1.1-0.8-2.3-1.1-3.4
					c-0.6-1.9-3.3-1.1-2.9,0.8c0.2,0.8,0.3,1.6,0.4,2.4c0.1,0.5,0.3,1.4,0.1,1.9c0.7-0.2,1.4-0.4,2.1-0.5c0.4,0.2,0-0.2-0.1-0.6
					c-0.1-0.4-0.3-0.9-0.4-1.3c-0.3-0.9-0.5-1.8-0.8-2.7C51,30.3,48.1,31,48.6,32.9L48.6,32.9z"/>
			</g>
		</g>
		<g>
			<g>
				<path class="st5" d="M49.2,31.3c-2.3,1.1-4,2.7-4,5.5c-0.1,3,1.3,4.4,3.6,6c1.6,1.1,3.1-1.5,1.5-2.6c-1.3-0.9-2.2-1.6-2.1-3.4
					c0.1-1.7,1.2-2.2,2.6-2.9C52.4,33,50.9,30.4,49.2,31.3L49.2,31.3z"/>
			</g>
		</g>
		<g>
			<g>
				<path class="st5" d="M45.8,39.9c0.3,0.9,0.7,1.9,1.5,2.5c0.6,0.5,1.5,0.6,2.1,0c0.5-0.5,0.6-1.6,0-2.1c-0.1-0.1-0.2-0.2-0.3-0.3
					c0.2,0.2-0.1-0.2-0.1-0.2c0-0.1-0.1-0.1-0.1-0.2c0,0.1,0,0.1,0,0c-0.1-0.2-0.1-0.3-0.2-0.5c-0.3-0.8-1-1.3-1.8-1
					C46.1,38.3,45.5,39.1,45.8,39.9L45.8,39.9z"/>
			</g>
		</g>
		<g>
			<g>
				<path class="st5" d="M45.1,39.2c0.4,1.8,1.8,3.1,3.4,4c0.8,0.4,1.7,1,2.6,1c1,0,1.9-0.6,2.7-1c1.8-0.8,0.2-3.4-1.5-2.6
					c-0.3,0.1-1,0.6-1.3,0.6s-0.9-0.5-1.2-0.6C49,40,48.3,39.5,48,38.4C47.6,36.6,44.7,37.3,45.1,39.2L45.1,39.2z"/>
			</g>
		</g>
		<g>
			<g>
				<path class="st5" d="M51.8,43.8c0.9-0.1,1.8-0.2,2.6-0.4c-0.3-1-0.5-1.9-0.8-2.9c-0.6,0.2-1.2,0.4-1.8,0.7
					c-1.2,0.6-0.9,2.4,0.4,2.7c2.4,0.6,4.9-1.5,5.9-3.6c-0.9-0.4-1.8-0.8-2.7-1.2c-0.1,0.4-0.2,0.8-0.4,1.2
					c-0.5,1.6,1.9,2.6,2.7,1.2c1.1-1.9,2.2-4.3,1.1-6.5c-0.5-1-1.4-1.7-2.2-2.6c-0.6-0.7-1.2-1.3-2.2-1.6c-1.4-0.4-4.2-0.8-5.1,0.7
					c-1.1,1.8,1.1,4.5,2,5.9c0.7,1.1,3,0.9,2.8-0.8c0-0.3-0.3-2-0.2-2.1c-0.4,0.1-0.7,0.3-1.1,0.4c0.3,0,0.9,2.3,1.2,2
					c0.5-0.1,1-0.3,1.5-0.4c0-0.1,0-0.2,0-0.3c-0.3,0.3-0.7,0.7-1,1c-0.2,0.7-0.7,1.1-1.3,1.1c-0.5,0.2-0.9,0.1-1.2-0.3
					c-0.5-0.4-1-1.4-0.7-2c-0.6,0.2-1.1,0.5-1.7,0.7c1.2,0.3,1.1,2.5,0.7,3.3c0.3-0.3,0.7-0.7,1-1c-0.7,0.2-1.4-1.9-1.6-2.1
					c-0.9-0.7-0.7,1.2-1.1,1.9c0.6-0.2,1.1-0.5,1.7-0.7c-0.5-0.3-0.8-0.7-0.9-1.3c-0.6-1.8-3.4-1.1-2.9,0.8c0.5,1.6,1.2,3,3,3.4
					c0.7,0.2,1.3-0.1,1.7-0.7c1.3-1.9,1.3-5.8-1.4-6.7c-3.3-1-3.5,3.2-2.6,5.2c0.9,1.8,4.3,4.9,5.8,2.1c1.4-2.4,0-6.6-2.7-7.1
					c-0.6-0.1-1.4,0.1-1.7,0.7c-1.5,3.6,2.4,9,6.4,6.6c1.7-1,2.4-3.5,1.6-5.3c-0.7-1.6-3-2.2-4-0.5c-0.9,1.5,0.4,3.7,2,4.2
					c2,0.5,2.3-1.7,2-3.1c-0.3-1.7-1.7-4.3-3.7-4.4c-2.4,0-2.1,3.1-1.9,4.7c0.9-0.3,1.9-0.5,2.8-0.8c-0.4-0.6-0.7-1.1-1.1-1.7
					c-0.2-0.3-0.5-1.6-1-1.1c-0.4,0.1-0.7,0.3-1.1,0.4c0.7-0.1,1.5-0.1,2.2,0c0.8,0.2,1,0.5,1.6,1.1s1.4,1.2,1.6,2.1
					c0.2,1-0.6,2.2-1.1,3.1c0.9,0.4,1.8,0.8,2.7,1.2c0.1-0.4,0.2-0.8,0.4-1.2c0.5-1.6-2-2.7-2.7-1.2c-0.3,0.6-1.6,2.4-2.5,2.2
					c0.1,0.9,0.2,1.8,0.4,2.7c0.3-0.2,0.7-0.3,1.1-0.4c1.9-0.5,1.1-3.3-0.8-2.9c-0.6,0.2-1.2,0.3-1.8,0.3
					C49.8,40.9,49.8,43.9,51.8,43.8L51.8,43.8z"/>
			</g>
		</g>
		<g>
			<g>
				<path class="st5" d="M44.1,362.4c0.7,3.9,4,6.6,7.8,6.5c3.7-0.1,6.5-3.1,6.9-6.7c0.4-3.4-2.5-7.3-6-7.4c-4.4-0.2-7,2.4-7.8,6.6
					c0.8-0.2,1.7-0.4,2.5-0.7c0.4-0.4,0.7-0.2,0.7,0.6c0.2,0.5,0.2,0.9,0,1.4c0.4-0.2,0.9-0.5,1.3-0.7c-0.1-0.2-0.1-0.5-0.2-0.7
					c-0.4,0.2-0.9,0.5-1.3,0.7c0.4,0.2,0.8,0.4,1.2,0.6c0.1,1.3,0.3,1.5,0.6,0.7c0.3-1-0.5-1.5,0.1-2.7c-0.4,0.2-0.9,0.5-1.3,0.7
					c0.8-0.2,1.4,0,1.6,0.7c0.6,0.9,0.6,1.8-0.1,2.7c0.6-0.1,1.2-0.2,1.8-0.2c-0.9-0.4-1.5-0.9-1.8-1.9c-0.3-0.6-0.4-1.2,0-1.9
					c0.2-0.7,0.3-0.8,0.2-0.4c1.9,0.1,1.4,3.7,0.8,4.6c0.6-0.2,1.1-0.5,1.7-0.7c-2.5-1-1.7-3.4-0.8-5.1c-0.6,0.2-1.1,0.5-1.7,0.7
					c1.4,0.3,2.4,0.6,2.6,2.2c0.2,1.3-0.1,1.9-1,2.7c0.7,0,1.4,0,2.1,0c-1.1-1.1-1.6-1.7-1.5-3.2c0.1-1,0.7-1.1,1.8-2
					c-0.6,0.1-1.2,0.2-1.8,0.2c1.4,0.8,0.9,4.7-0.8,5.1c-1.9,0.4-1.1,3.3,0.8,2.9c2.4-0.5,3.3-3.1,3.7-5.2c0.5-2.6,0.2-4-2.2-5.3
					c-0.6-0.4-1.3-0.2-1.8,0.2c-1.8,1.5-2.7,2.1-2.6,4.5c0,2.3,0.7,3.4,2.4,5c0.6,0.6,1.5,0.5,2.1,0c1.8-1.6,2.4-3.4,1.8-5.8
					c-0.7-2.7-2.1-3.5-4.7-4.2c-0.6-0.1-1.4,0.1-1.7,0.7c-1,1.9-1.7,3.3-1,5.4s1.5,3.3,3.6,4.1c0.6,0.2,1.4-0.2,1.7-0.7
					c2.1-3.4,0.6-10.1-4.5-8.9c-1.6,0.4-2.5,2.7-2.4,4.2c0.1,2.3,1.6,4.3,3.6,5.3c0.6,0.3,1.3,0.3,1.8-0.2c1.5-1.4,1.7-3.5,1-5.4
					c-0.9-2.3-2.2-3-4.6-3.1c-0.5,0-1.1,0.3-1.3,0.7c-0.9,1.7-0.9,3.6,0.2,5.3c0.8,1.3,2.5,2.8,4.1,1.7c1.4-0.9,1.2-2.9,0.7-4.2
					c-0.7-1.8-2.2-2.9-4.2-2.8c-0.5,0-1.1,0.3-1.3,0.7c-0.9,1.7-0.4,4.3,1.6,5.1c2.6,1,3.3-2,2.8-4c-0.5-1.9-2.2-4.3-4.4-3.2
					c-1.8,0.9-3,3.6-1.4,5.2c0.8,0.7,2.3,0.5,2.5-0.7c0.4-2.3,1.3-4.2,3.8-4.4c2.6-0.2,4.6,2.2,3.9,4.9c-0.6,2.2-2.2,3.4-4.5,3.2
					c-2.1-0.1-3.8-2.2-4.2-4.3C46.7,359.7,43.8,360.5,44.1,362.4L44.1,362.4z"/>
			</g>
		</g>
		<g>
			<g>
				<path class="st6" d="M48.9,33c-0.8,0.7-1.8,2.1-1.5,3.2c0.2,0.8,1,1,1.8,0.7c0.6-0.3,1-0.7,1.4-1.2c0.7-0.9,1.7-2.5,0.3-3.2
					c-1.2-0.6-2.3,0.9-2.7,1.8c-0.6,1.1,1.1,2.2,1.7,1c0.1-0.2,0.2-0.4,0.4-0.6c0,0,0.1-0.1,0.1-0.2c0.1-0.2,0.2,0-0.1-0.1
					c-0.1-0.1-0.3-0.2-0.4-0.3l0.1,0.1c-0.1-0.1-0.2-0.3-0.3-0.4c0-0.2,0-0.2-0.1,0c0,0.1-0.1,0.1-0.1,0.2c-0.1,0.2-0.2,0.4-0.4,0.6
					c-0.1,0.1-0.2,0.3-0.3,0.4c-0.1,0.1-0.3,0.2-0.2,0.2c0.2,0.1,0.5,0.2,0.7,0.3l-0.1-0.1c0.1,0.1,0.2,0.3,0.3,0.4
					c0,0.1,0.1-0.2,0.2-0.3s0.1-0.2,0.2-0.4c0.2-0.2,0.3-0.4,0.6-0.6c0.4-0.3,0.4-1.1,0-1.4C49.9,32.6,49.4,32.7,48.9,33L48.9,33z"
					/>
			</g>
		</g>
		<g>
			<g>
				<path class="st6" d="M48.5,357.8c-1,0.6-1.6,1.6-1.6,2.8c0,0.5,0.5,1,1,1c0.9,0,1.6-0.8,2.1-1.4c0.4-0.6,0.9-1.4,0.9-2.2
					c0-0.5-0.3-0.8-0.7-1c-0.7-0.3-1.5,0.4-1.9,1c-0.5,0.6-0.8,1.2-1,1.9c-0.3,1.2,1.6,1.8,1.9,0.5c0.1-0.3,0.2-0.6,0.4-0.9
					c0.1-0.1,0.1-0.2,0.2-0.3c0.1-0.1,0.4-0.4,0.3-0.3c-0.2,0-0.4,0-0.5,0h0.1c-0.2-0.3-0.5-0.6-0.7-1c0,0.3-0.3,0.7-0.4,0.9
					c-0.1,0.1-0.2,0.3-0.3,0.4c-0.1,0.1-0.2,0.1-0.2,0.2c-0.2,0.1-0.2,0.1,0,0.1c0.3,0.3,0.7,0.7,1,1c0-0.4,0.3-0.8,0.7-1.1
					C50.6,358.8,49.6,357,48.5,357.8L48.5,357.8z"/>
			</g>
		</g>
	</g>
	<g id="Слой_21">
		<g>
			<g>
				<path class="st7" d="M49.5,114.9c0.7,3.9,0,7.9,1,11.7c1.2,4.6,0,9.4-0.8,14c-0.3,1.9,2.6,2.7,2.9,0.8c0.8-4.3,2.3-9.9,1.5-14.2
					c-0.4-2.1-1.1-3.8-1.2-6.1c0-2.4-0.1-4.6-0.5-6.9C52.1,112.2,49.2,113,49.5,114.9L49.5,114.9z"/>
			</g>
		</g>
		<g>
			<g>
				<path class="st7" d="M52.2,117.8c-0.2-0.7-0.3-1.4-0.5-2c-0.1-0.5-0.6-1-0.6-1.4c-1,0.3-1.9,0.5-2.9,0.8v0.1
					c0.5,1.9,3.4,1.1,2.9-0.8v-0.1c-0.2-0.8-1.1-1.3-1.8-1c-0.9,0.2-1.2,1-1,1.8c0.1,0.5,0.4,0.9,0.6,1.4c0.2,0.6,0.3,1.4,0.5,2
					C49.8,120.5,52.7,119.7,52.2,117.8L52.2,117.8z"/>
			</g>
		</g>
		<g>
			<g>
				<path class="st7" d="M51,114.7c-0.1-0.2-0.3-0.4-0.4-0.6c-0.5-0.7-1.3-1-2.1-0.5c-0.6,0.4-1,1.4-0.5,2.1
					c0.1,0.2,0.3,0.4,0.4,0.6c0.5,0.7,1.3,1,2.1,0.5C51.2,116.4,51.5,115.3,51,114.7L51,114.7z"/>
			</g>
		</g>
		<g>
			<g>
				<path class="st7" d="M51.6,114.4c0.4-0.7,0.8-1.4,1.1-2.1c0.4-0.7,0.2-1.6-0.5-2.1c-0.7-0.4-1.7-0.2-2.1,0.5s-0.8,1.4-1.1,2.1
					c-0.4,0.7-0.2,1.6,0.5,2.1C50.2,115.3,51.2,115.1,51.6,114.4L51.6,114.4z"/>
			</g>
		</g>
		<g>
			<g>
				<path class="st7" d="M50.2,111.2c0.3,1.1,0.6,2.1,0.9,3.2c0.4,1.9,3.3,1.1,2.9-0.8c-0.3-1.1-0.6-2.1-0.9-3.2
					c-0.2-0.8-1-1.3-1.8-1C50.5,109.5,50,110.4,50.2,111.2L50.2,111.2z"/>
			</g>
		</g>
		<g>
			<g>
				<path class="st7" d="M51.2,112.9c0.8,0.8,1.3,1.6,1.6,2.6c0.1-0.5,0.3-1,0.4-1.5l-0.1,0.1c0.8,0.6,1.6,1.2,2.4,1.8l-0.1,0.1
					c-0.6-0.8-1.2-1.6-1.8-2.4c-1.5,1.5-2,3.5-2.6,5.5c-0.6,1.9,2.3,2.6,2.9,0.8c0.4-1.5,0.7-3,1.8-4.1c1.2-1.2-0.3-3.2-1.8-2.4
					c-0.4,0.2-0.7,0.5-0.9,1c-0.7,1.4,1.1,3.2,2.4,1.8c1.5-1.7-0.6-4.3-1.8-5.5C52,109.4,49.8,111.5,51.2,112.9L51.2,112.9z"/>
			</g>
		</g>
		<g>
			<g>
				<path class="st7" d="M52.6,122.8c1.4,1.5,2.5,3.3,3.3,5.2c0.3,0.8,1.4,0.9,2.1,0.5c0.8-0.4,0.9-1.3,0.5-2.1
					c-0.9-2.2-2.2-4.1-3.8-5.8C53.4,119.3,51.3,121.4,52.6,122.8L52.6,122.8z"/>
			</g>
		</g>
		<g>
			<g>
				<path class="st7" d="M55.5,126.1c1.1,2,2.4,3.9,3.8,5.6c0.5,0.6,1.6,0.5,2.1,0c0.6-0.6,0.5-1.5,0-2.1c-1.3-1.6-2.4-3.3-3.4-5
					C57.1,122.9,54.5,124.4,55.5,126.1L55.5,126.1z"/>
			</g>
		</g>
		<g>
			<g>
				<path class="st7" d="M55.5,126.1c1.5,2.3,3.3,4.6,4.6,7.1c0.8,1.7,3.4,0.2,2.6-1.5c-1.2-2.5-3-4.8-4.6-7.1
					C57.1,123,54.5,124.5,55.5,126.1L55.5,126.1z"/>
			</g>
		</g>
		<g>
			<g>
				<path class="st7" d="M52.9,125.3c1.4,3.2,3.2,6.1,4.7,9.2c0.8-0.6,1.6-1.2,2.4-1.8c-2-2.1-5.2-5.3-5.2-8.4
					c-0.8,0.4-1.5,0.9-2.3,1.3c0.2,0.1,0.6,1.2,0.7,1.5c0.4,0.8,0.8,1.7,1.2,2.6c0.6,1.4,1.8,3.4,1.7,5c0.1-0.4,0.3-0.7,0.4-1.1
					c-0.1,0.1-0.2,0.1-0.2,0.2c0.5-0.1,1-0.3,1.5-0.4c-0.1,0-0.2,0-0.3-0.1c-1.9-0.4-2.7,2.5-0.8,2.9c3.2,0.6,2.4-3,1.7-4.8
					c-0.6-1.6-1.3-3.2-2.1-4.8c-0.6-1.3-1-2.8-2.3-3.6c-1-0.6-2.3,0.2-2.3,1.3c0,4,3.5,7.9,6.1,10.6c1.3,1.3,3-0.3,2.4-1.8
					c-1.5-3.1-3.3-6.1-4.7-9.2C54.7,122,52.1,123.5,52.9,125.3L52.9,125.3z"/>
			</g>
		</g>
		<g>
			<g>
				<path class="st7" d="M50,119.7c-2.7,3.4-4.5,7.5-6.9,11c-1.1,1.6,1.5,3.1,2.6,1.5c1-1.4,2-2.9,2.9-4.4c1.2-2,2.2-4.2,3.6-6
					C53.3,120.3,51.2,118.2,50,119.7L50,119.7z"/>
			</g>
		</g>
		<g>
			<g>
				<path class="st7" d="M42.5,135.8c1.3-2.3,2.5-4.9,4.2-6.9c1.6-1.8,3-3.8,4.5-5.7c1.2-1.5-1.4-3-2.6-1.5c-1.5,2-3.1,3.9-4.7,5.9
					c-1.6,2-2.8,4.5-4,6.7C39,136,41.6,137.5,42.5,135.8L42.5,135.8z"/>
			</g>
		</g>
		<g>
			<g>
				<path class="st7" d="M40.1,137c1.8,2,3.7,3.9,5.1,6.2c1.1,1.7,2.1,3.3,3.8,4.6c1.5,1.2,3-1.4,1.5-2.6c-1.7-1.3-2.5-3.4-3.8-5.1
					c-1.4-1.8-3-3.5-4.5-5.2C40.9,133.4,38.8,135.6,40.1,137L40.1,137z"/>
			</g>
		</g>
		<g>
			<g>
				<path class="st7" d="M42.3,136.2c2.4,3.6,4.9,7.1,7.4,10.5c0.8-0.6,1.6-1.2,2.4-1.8c-1.5-1.6-2.8-3.3-3.9-5.2
					c-0.4-0.7-3-5.3-2.7-5.6c-0.6,0.1-1.2,0.2-1.8,0.2c2.8,1.8,4.1,7.4,5.7,10.2c1,1.7,3.5,0.2,2.6-1.5c-1.7-3.2-5.3-8.1-4.7-11.9
					c-0.8,0.2-1.7,0.4-2.5,0.7c2.7,3.4,3.9,7.6,5.9,11.5c0.9,1.7,3.4,0.2,2.6-1.5c-2.2-4.5-4.2-9-4.3-14.1c-0.6,0.5-1.3,1-1.9,1.4
					c1.6,0.5,2.7,9.4,3.1,11c1-0.3,1.9-0.5,2.9-0.8c-1.6-4.2-3.5-9.4-2.5-13.9c-0.7,0.3-1.5,0.6-2.2,0.9c1.4,0.8,1.9,5.5,2.1,6.8
					c0.4,2.2,0.7,4.3,1,6.5c1-0.3,1.9-0.5,2.9-0.8c-0.5-2-3.3-11-1.5-12.4c-0.8-0.1-1.6-0.2-2.4-0.3c2.8,4.3,3,11.5,3.4,16.4
					c1-0.1,2-0.3,2.9-0.4c-0.5-1.3-0.7-4.8-1.9-5.3c-0.7-1-1.1-0.7-1,0.8c-0.4,1.3-0.8,2.5-1.5,3.7c0.9,0.4,1.8,0.8,2.7,1.2
					c0.4-1.7,1.3-7.7,3.4-8c-0.6-0.2-1.1-0.5-1.7-0.7c1,1.3-1.8,6.5-2.3,7.6c0.9,0.4,1.8,0.8,2.7,1.2c0.8-2.6,1.9-4.8,3.5-7
					c-0.9-0.3-1.9-0.5-2.8-0.8c-0.3,0.7-0.6,1.4-0.8,2.1c0.9,0.4,1.8,0.8,2.7,1.2c0.2-1.1,0.5-2.2,0.9-3.2c0.7-1.8-1.8-3.3-2.6-1.5
					c-0.6,1.3-1,2.5-1.2,4c-0.3,1.7,1.8,2.6,2.7,1.2c0.8-1.2,1.1-2.2,1.2-3.6c0.1-1.7-2-1.8-2.8-0.8c-1.8,2.4-3,4.8-3.8,7.7
					c-0.5,1.6,2,2.7,2.7,1.2c1.2-2.5,4.3-8,2.3-10.6c-0.5-0.6-1-0.8-1.7-0.7c-3.6,0.5-4.9,7.4-5.4,10.1c-0.3,1.6,2,2.8,2.7,1.2
					c0.8-1.7,5-10.8,0.5-11c-4.7-0.2-2.4,9.2-1.6,11.2c0.6,1.4,3.1,1.4,2.9-0.4c-0.5-5.6-0.7-13.1-3.8-17.9
					c-0.6-0.9-1.6-0.9-2.4-0.3c-3.3,2.6,0,12.1,0.7,15.3c0.4,1.9,3.1,1.1,2.9-0.8c-0.5-4-0.5-12.9-4.5-15.1c-0.8-0.4-2-0.1-2.2,0.9
					c-1.1,5.1,0.7,10.8,2.5,15.5c0.7,1.8,3.3,1.1,2.9-0.8c-0.7-3.3-1.3-11.9-5.2-13.1c-0.9-0.3-1.9,0.5-1.9,1.4
					c0.1,5.7,2.3,10.6,4.8,15.6c0.9-0.5,1.7-1,2.6-1.5c-2.1-4.1-3.4-8.4-6.3-12.1c-0.7-0.8-2.3-0.4-2.5,0.7
					c-0.8,4.8,2.8,10.2,5,14.2c0.9-0.5,1.7-1,2.6-1.5c-2-3.5-3.3-8.9-6.8-11.2c-0.6-0.4-1.3-0.2-1.8,0.2c-3.6,3.3,4.4,12.6,6.6,15.1
					c1.1,1.2,3.4-0.4,2.4-1.8c-2.5-3.5-5-7-7.4-10.5C43.8,133.1,41.2,134.6,42.3,136.2L42.3,136.2z"/>
			</g>
		</g>
		<g>
			<g>
				<path class="st7" d="M59,134.3c0.4,0.4,0.8,0.9,1,1.4c0.8,1.5,3.4,0.4,2.7-1.2c-0.2-0.4-0.4-0.9-0.4-1.4
					c-0.9,0.4-1.8,0.8-2.7,1.2c0.2,0.3,0.4,0.6,0.6,0.9c1,1.4,3.1,0.5,2.7-1.2c-0.1-0.3-0.1-0.5-0.2-0.8c-0.8,0.5-1.7,1-2.5,1.5
					c0.2,0.4,0.3,0.8,0.5,1.1c0.2,1.2,1.7,1.3,2.5,0.7c0.1-0.1,0.3-0.2,0.4-0.3c-0.7-0.7-1.4-1.4-2.1-2.1c-1.9,1.7-3.2,3.7-4.9,5.7
					c-1.4,1.7-3.3,2.9-4.5,4.7c-0.8,1.2,0.8,2.9,2.1,2.1c1.3-1,2.6-2,3.7-3.2c-0.7-0.7-1.4-1.4-2.1-2.1c-0.9,1-1.7,2-2.4,3
					c-1,1.4,1.3,3.1,2.4,1.8c2.3-2.8,4.5-5.6,6.8-8.4c1.2-1.5-0.9-3.6-2.1-2.1c-2.3,2.8-4.5,5.6-6.8,8.4c0.8,0.6,1.6,1.2,2.4,1.8
					c0.6-0.9,1.3-1.6,2-2.4c1.3-1.4-0.8-3.5-2.1-2.1c-1,1-2,1.9-3.1,2.7c0.7,0.7,1.4,1.4,2.1,2.1c1.1-1.8,3.2-3,4.5-4.7
					c1.4-1.8,2.7-3.6,4.4-5.1c1.5-1.3-0.6-3.3-2.1-2.1c-0.1,0.1-0.3,0.2-0.4,0.3c0.8,0.2,1.7,0.4,2.5,0.7c-0.2-1-0.6-1.7-1.2-2.5
					c-1-1.2-2.8,0.1-2.5,1.5c0.1,0.3,0.1,0.5,0.2,0.8c0.9-0.4,1.8-0.8,2.7-1.2c-0.2-0.3-0.4-0.6-0.6-0.9c-1-1.5-3-0.5-2.7,1.2
					c0,0.5,0.1,0.9,0.4,1.4c0.9-0.4,1.8-0.8,2.7-1.2c-0.4-0.8-0.9-1.4-1.5-2C59.8,130.8,57.7,132.9,59,134.3L59,134.3z"/>
			</g>
		</g>
		<g>
			<g>
				<path class="st7" d="M49.3,143.7c1.6,2.4,1.3,6.1,1.3,8.9c0,2,2.8,1.9,3,0c0.4-3.5,0.1-7.1,0.8-10.5c-1-0.1-2-0.3-2.9-0.4
					c-0.4,5.5-0.4,10.9,0,16.4c1-0.1,2-0.3,2.9-0.4c-0.7-4.1-2-8.6-1.5-12.8c-1,0.1-2,0.3-2.9,0.4c0.6,2.3,0.3,4.8,0.2,7.1
					c-0.1,2.3,0.1,5.6-1.1,7.5c-1,1.7,1.6,3.2,2.6,1.5c1.3-2.2,1.3-5.2,1.5-7.7c0.2-3,0.6-6.3-0.2-9.2c-0.5-1.8-2.7-1.2-2.9,0.4
					c-0.6,4.3,0.8,9.4,1.6,13.6c0.3,1.7,3.1,1.3,2.9-0.4c-0.4-5.5-0.4-10.9,0-16.4c0.1-1.7-2.6-2.1-2.9-0.4
					c-0.7,3.8-0.4,7.6-0.9,11.3c1,0,2,0,3,0c0-3.3,0.2-7.5-1.7-10.4C50.9,140.5,48.3,142,49.3,143.7L49.3,143.7z"/>
			</g>
		</g>
		<g>
			<g>
				<path class="st7" d="M48.5,145.3c-2.3,4-5,7.8-8.2,11.2c-1.3,1.4,0.8,3.5,2.1,2.1c3.3-3.6,6.2-7.5,8.7-11.8
					C52.1,145.2,49.5,143.7,48.5,145.3L48.5,145.3z"/>
			</g>
		</g>
		<g>
			<g>
				<path class="st7" d="M44.6,156.7c1.6-2.3,3.2-4.6,4.8-6.9c1.1-1.6-1.4-3-2.6-1.5c-1.5,1.9-2.9,3.9-4.4,5.8
					c-1,1.4,1.2,3.1,2.4,1.8c2-2.2,2.9-5.5,5.4-7.2c1.6-1.1,0.1-3.7-1.5-2.6c-2.9,2-3.8,5.2-6,7.7c0.8,0.6,1.6,1.2,2.4,1.8
					c1.5-1.9,2.9-3.9,4.4-5.8c-0.9-0.5-1.7-1-2.6-1.5c-1.6,2.3-3.2,4.6-4.8,6.9C40.9,156.7,43.5,158.2,44.6,156.7L44.6,156.7z"/>
			</g>
		</g>
		<g>
			<g>
				<path class="st7" d="M49.7,150.5c1.2,3.4,2.2,6.8,2.9,10.3c1-0.3,1.9-0.5,2.9-0.8c-1.3-3.4-4-9.3-2.1-12.9
					c-0.8,0.1-1.6,0.2-2.4,0.3c3,3,4,8.7,5.4,12.6c1-0.3,1.9-0.5,2.9-0.8c-1.5-3.8-3-7.5-4.5-11.3c-0.9,0.4-1.8,0.8-2.7,1.2
					c1.9,3.6,3.9,7,6.1,10.4c1.1,1.7,3.4,0.2,2.6-1.5c-1.9-4.3-4.8-8.4-5.4-13.2c-0.9,0.3-1.9,0.5-2.8,0.8c2.5,3.8,3.8,8.1,6.1,12
					c0.9-0.5,1.7-1,2.6-1.5c-2.3-3.1-4.3-6.3-5.9-9.8c-0.9,0.5-1.7,1-2.6,1.5c2.3,3.7,4.6,7.4,7,11.1c1,1.6,3.6,0.1,2.6-1.5
					c-2.3-3.7-4.6-7.4-7-11.1c-1-1.7-3.4-0.2-2.6,1.5c1.6,3.5,3.6,6.8,5.9,9.8c1.1,1.5,3.6,0.2,2.6-1.5c-2.3-3.8-3.6-8.2-6.1-12
					c-0.7-1.1-3-0.8-2.8,0.8c0.6,5.4,3.6,9.8,5.8,14.7c0.9-0.5,1.7-1,2.6-1.5c-2.2-3.4-4.2-6.8-6.1-10.4c-0.8-1.5-3.4-0.4-2.7,1.2
					c1.5,3.8,3,7.5,4.5,11.3c0.7,1.7,3.5,1.1,2.9-0.8c-1.6-4.5-2.7-10.4-6.1-13.9c-0.6-0.7-1.9-0.6-2.4,0.3
					c-2.4,4.6,0.1,10.8,1.8,15.3c0.7,1.8,3.3,1.1,2.9-0.8c-0.7-3.5-1.6-6.9-2.9-10.3C52,147.9,49.1,148.7,49.7,150.5L49.7,150.5z"/>
			</g>
		</g>
		<g>
			<g>
				<path class="st7" d="M53.7,149.7c2,2.2,3.9,4.4,5.8,6.8c0.7-0.7,1.4-1.4,2.1-2.1c-1.2-1.3-2.3-2.6-3.3-4.1
					c-0.8,0.6-1.6,1.2-2.4,1.8c1.8,1.9,3.1,4.2,4.5,6.4c0.8-0.6,1.6-1.2,2.4-1.8c-1.6-1.8-2.8-3.8-3.8-6c-0.8,0.6-1.6,1.2-2.4,1.8
					c1.7,1.8,3.1,3.8,4.2,6c0.8-0.6,1.6-1.2,2.4-1.8c-0.1-0.1-0.3-0.3-0.4-0.4c-1.3-1.4-3.4,0.7-2.1,2.1c0.1,0.1,0.3,0.3,0.4,0.4
					c1.2,1.3,3.1-0.4,2.4-1.8c-1.2-2.4-2.8-4.7-4.6-6.6c-1.2-1.3-3,0.4-2.4,1.8c1.1,2.4,2.6,4.6,4.3,6.6c1.1,1.3,3.3-0.4,2.4-1.8
					c-1.6-2.4-3-4.9-5-7c-1.2-1.2-3.3,0.4-2.4,1.8c1.1,1.7,2.3,3.3,3.7,4.7c1.4,1.4,3.3-0.6,2.1-2.1c-1.8-2.3-3.8-4.6-5.8-6.8
					C54.5,146.1,52.4,148.2,53.7,149.7L53.7,149.7z"/>
			</g>
		</g>
		<g>
			<g>
				<path class="st7" d="M59.3,156.2c3.1,2.6-1.9,11-3.2,13.8c-0.8,1.7,1.8,3.3,2.6,1.5c1.7-3.5,3.2-7.1,4.3-10.8
					c0.9-2.8,0.8-4.6-1.6-6.6C60,152.9,57.8,155,59.3,156.2L59.3,156.2z"/>
			</g>
		</g>
		<g>
			<g>
				<path class="st7" d="M60.7,158.1c0,2.8-1.8,5.7-2.8,8.4c-1,2.8-1.9,5.6-2.7,8.4c-0.5,1.9,2.2,2.5,2.9,0.8
					c2.3-5.6,4.2-11.3,5.7-17.1c0.5-1.9-2.4-2.7-2.9-0.8c-1.5,5.8-3.4,11.5-5.7,17.1c1,0.3,1.9,0.5,2.9,0.8c0.9-3.3,2-6.5,3.2-9.6
					c1-2.6,2.5-5.1,2.4-8C63.7,156.1,60.7,156.1,60.7,158.1L60.7,158.1z"/>
			</g>
		</g>
		<g>
			<g>
				<path class="st7" d="M60.9,157.7c0.1,0.2,0.2,0.5,0.2,0.5c0,0.3,0,0.4,0,0.5c-0.2,0.8,0.2,1.7,1,1.8c0.8,0.2,1.7-0.2,1.8-1
					c0.2-0.9,0.2-1.8-0.1-2.6c-0.3-0.8-1-1.3-1.8-1C61.2,156.1,60.6,157,60.9,157.7L60.9,157.7z"/>
			</g>
		</g>
		<g>
			<g>
				<path class="st7" d="M53.4,156c1.5,2.7,2.3,5.4,2.3,8.6c0.9-0.3,1.9-0.5,2.8-0.8c-1.4-3.2-2.3-6.3-2.8-9.7
					c-0.9,0.4-1.8,0.8-2.7,1.2c2.3,3.3,2.7,8.2,3.4,12.1c1-0.3,1.9-0.5,2.9-0.8c-0.9-3.1-1.9-6.8,0.2-9.7c-0.9-0.1-1.8-0.2-2.7-0.4
					c1.1,3.5-0.3,7.7-1.1,11.1c1,0.3,1.9,0.5,2.9,0.8c0.5-2.9,1.3-5.4,2.7-8c-0.9-0.1-1.8-0.2-2.7-0.4c0.5,1.9-1.2,5.3-1.7,7.1
					c-0.9,2.9-1.9,5.6-3.2,8.4c0.9,0.3,1.9,0.5,2.8,0.8c-0.5-5,1.3-10.2,3.1-14.7c-1-0.3-1.9-0.5-2.9-0.8c-1.1,3.5-2.1,8.3-4.5,11.2
					c-1.2,1.5,0.9,3.6,2.1,2.1c2.8-3.5,3.9-8.3,5.2-12.5c0.6-1.9-2.2-2.5-2.9-0.8c-1.9,4.8-3.8,10.3-3.2,15.5
					c0.1,1.3,2.1,2.3,2.8,0.8c1.4-3.2,2.6-6.5,3.7-9.8c0.8-2.5,2.2-5.3,1.5-8c-0.3-1.2-2.1-1.5-2.7-0.4c-1.5,2.8-2.5,5.5-3,8.7
					c-0.3,1.9,2.4,2.7,2.9,0.8c0.9-3.9,2.3-8.7,1.1-12.7c-0.4-1.3-2-1.4-2.7-0.4c-2.6,3.6-1.6,8-0.5,12c0.5,1.9,3.2,1.1,2.9-0.8
					c-0.8-4.2-1.2-9.3-3.7-12.9c-1-1.4-3-0.5-2.7,1.2c0.5,3.7,1.5,7.1,3.1,10.5c0.6,1.4,2.8,0.7,2.8-0.8c-0.1-3.7-1-6.9-2.8-10.1
					C55,152.8,52.4,154.3,53.4,156L53.4,156z"/>
			</g>
		</g>
		<g>
			<g>
				<path class="st7" d="M48.1,148.4c-0.9,2.3-2.1,4.4-3.6,6.3c-1.2,1.5-2.7,2.6-3.7,4.3s1.6,3.2,2.6,1.5c1.1-1.9,3.1-3.3,4.4-5.1
					c1.4-1.9,2.4-4,3.3-6.2C51.7,147.4,48.8,146.6,48.1,148.4L48.1,148.4z"/>
			</g>
		</g>
		<g>
			<g>
				<path class="st7" d="M39.4,158.8c0.8,2.1,1.7,4.2,2.6,6.3c0.8,1.7,3.4,0.2,2.6-1.5c-0.8-1.8-1.6-3.7-2.3-5.5
					C41.6,156.2,38.7,157,39.4,158.8L39.4,158.8z"/>
			</g>
		</g>
		<g>
			<g>
				<path class="st7" d="M41.5,166.3c0.9,3.1,2,6,3.3,9c0.8,1.8,3.4,0.2,2.6-1.5c-1.2-2.7-2.2-5.4-3-8.2
					C43.8,163.7,41,164.5,41.5,166.3L41.5,166.3z"/>
			</g>
		</g>
		<g>
			<g>
				<path class="st7" d="M48.6,173.9c-1.7-4.7-1.3-9.8-3.4-14.3c-0.7-1.4-2.7-0.6-2.8,0.8c0,0.4,0,0.8,0,1.1c1,0,2,0,3,0
					c0-0.7,0-1.4,0-2.2c-0.9,0.3-1.9,0.5-2.8,0.8c1.6,2.8,2.5,5.9,3.7,8.8c0.7,1.7,3.4,1.1,2.9-0.8c-0.9-3.3-2.1-6.5-2-10
					c-0.9,0.3-1.9,0.5-2.8,0.8c1.4,2.9,2.1,6.3,3,9.4c1-0.3,1.9-0.5,2.9-0.8c-0.4-1.2-0.8-2.3-1.1-3.5c-0.5-1.8-0.2-4.6-1-5.9
					c-0.8-1.3-1-2.2-1.2,0.2c-0.2,1.5,0.2,3.4,0.1,5c1-0.1,2-0.3,2.9-0.4c-0.5-3.4-0.6-6.4,0.2-9.8c-1,0-1.9,0-2.9,0
					c0.7,1.7,0.4,3.4,0.3,5.2c-0.1,1.7,2.7,2.1,2.9,0.4c0.3-2.1,0.3-4.2,0.8-6.3c-0.9,0.1-1.8,0.2-2.7,0.4c1.1,2.4,0.7,6.4,0.8,9.1
					c0.2,3.3,0.5,6.7,0.7,10c1-0.1,2-0.3,2.9-0.4c-0.9-2.4-2.7-8.1-0.8-10.5c-0.8-0.2-1.7-0.4-2.5-0.7c1.4,5.1,0.4,11.1-0.1,16.3
					c1-0.1,2-0.3,2.9-0.4c-0.2-0.8-1.1-12.3,0.6-11.8c1.1,0.3-1.3,11.4-1.7,12.6c0.9-0.1,1.8-0.2,2.7-0.4c-1.7-3.3-0.5-9.2,1.3-12.3
					c-0.8,0.1-1.6,0.2-2.4,0.3c1.5,1.3-0.7,12-1.2,13.7c-0.5,1.9,2.4,2.7,2.9,0.8c1-3.5,1.1-7.3,1.3-10.9c0.1-1.7,0.7-4.5-0.9-5.8
					c-0.7-0.6-1.8-0.6-2.4,0.3c-2.5,4.1-3.6,10.9-1.3,15.3c0.6,1.3,2.3,0.8,2.7-0.4c1.4-3.7,1.8-8.5,1.8-12.5c0-2,0.1-4.6-2-5.6
					c-0.5-0.2-1.1-0.3-1.5,0c-4.8,3.4-4.3,12.3-2.9,17.3c0.5,1.7,2.8,1.2,2.9-0.4c0.5-5.5,1.5-11.7,0-17.1c-0.3-1-1.8-1.6-2.5-0.7
					c-2.8,3.5-1.5,9.6,0,13.4c0.6,1.4,3.1,1.4,2.9-0.4c-0.3-4.2-0.6-8.5-0.9-12.7c-0.2-2.6,0-5.5-1.1-7.9c-0.5-1.2-2.4-0.8-2.7,0.4
					c-0.5,2.1-0.5,4.1-0.8,6.3c1,0.1,2,0.3,2.9,0.4c0.1-2.1,0.3-4-0.4-6c-0.5-1.3-2.5-1.6-2.9,0c-0.9,3.8-0.8,7.5-0.2,11.4
					c0.3,1.8,2.8,1.2,2.9-0.4c0.2-2.7,0.9-9.3-2.3-10.6c-0.4-0.2-1.2,0-1.5,0.4c-3,3.8-0.2,11.3,1,15.2c0.6,1.8,3.4,1.1,2.9-0.8
					c-1-3.4-1.8-6.9-3.3-10.2c-0.7-1.4-2.7-0.6-2.8,0.8c-0.2,3.8,1,7.1,2.1,10.8c1-0.3,1.9-0.5,2.9-0.8c-1.3-3.2-2.3-6.5-4.1-9.5
					c-0.7-1.3-2.8-0.7-2.8,0.8c0,0.7,0,1.4,0,2.2c0,1.9,2.9,1.9,3,0c0-0.4,0-0.8,0-1.1c-0.9,0.3-1.9,0.5-2.8,0.8
					c2,4.3,1.5,9.2,3.1,13.6C46.4,176.5,49.3,175.8,48.6,173.9L48.6,173.9z"/>
			</g>
		</g>
		<g>
			<g>
				<path class="st7" d="M47.4,168.9c0.3,2.6,0.7,5.1,1,7.7c1-0.1,2-0.3,2.9-0.4c-0.3-2.3-1.2-4.4-1.3-6.7c-1,0-2,0-3,0
					c0.5,4,1.1,8,1.8,12c0.9-0.4,1.8-0.8,2.7-1.2c0-0.1-0.1-0.2-0.1-0.2c-1-1.6-3.6-0.1-2.6,1.5c0,0.1,0.1,0.2,0.1,0.2
					c0.9,1.5,3,0.5,2.7-1.2c-0.6-3.7-1.2-7.4-1.7-11.2c-0.2-1.9-3.1-2-3,0c0.1,2.6,1.1,5,1.5,7.5c0.2,1.7,3.2,1.3,2.9-0.4
					c-0.3-2.6-0.7-5.1-1-7.7C50.2,167,47.2,167,47.4,168.9L47.4,168.9z"/>
			</g>
		</g>
		<g>
			<g>
				<path class="st7" d="M45.8,176.2c1.1,2,2.1,4,3,6.1c0.3,0.8,1.4,0.9,2.1,0.5c0.8-0.4,0.9-1.3,0.5-2.1c-0.9-2.1-1.9-4.1-3-6.1
					C47.5,173,44.9,174.5,45.8,176.2L45.8,176.2z"/>
			</g>
		</g>
		<g>
			<g>
				<path class="st7" d="M46.3,177.6c0.9,2.5,1.6,5,2.7,7.5c0.8,1.9,2.4,2.2,4.3,1.8s1.1-3.3-0.8-2.9c-0.9,0.2-0.8-0.3-1.1-1.1
					c-0.2-0.6-0.4-1.2-0.6-1.8c-0.5-1.4-1-2.8-1.5-4.2C48.6,175,45.7,175.8,46.3,177.6L46.3,177.6z"/>
			</g>
		</g>
		<g>
			<g>
				<path class="st7" d="M51,186.9c0.3,0.2,0.6,0.3,0.9,0.4c0.8,0.2,1.7-0.2,1.8-1c0.2-0.8-0.2-1.6-1-1.8c-0.3-0.1,0.1,0.1-0.2-0.1
					c-0.7-0.4-1.7-0.1-2.1,0.5C50,185.6,50.3,186.5,51,186.9L51,186.9z"/>
			</g>
		</g>
		<g>
			<g>
				<path class="st7" d="M49.1,186c0.7,1.1,2,1.6,3.2,1.2c0.8-0.2,1.3-1,1-1.8c-0.2-0.8-1.1-1.3-1.8-1c-0.2,0-0.2,0.1,0,0
					c0.2,0,0.2,0,0,0c0.2,0.1,0.2,0.1,0,0c0.1,0,0.1,0.1,0.2,0.2c-0.4-0.7-1.3-1-2.1-0.5C49,184.3,48.7,185.3,49.1,186L49.1,186z"/>
			</g>
		</g>
		<g>
			<g>
				<path class="st7" d="M53.9,186.7c0.4-0.5,0.7-0.9,0.8-1.5c-1-0.1-2-0.3-2.9-0.4c0,0.2,0,0.2,0,0.1c0,0.1,0,0.2-0.1,0.3
					c1,0.3,1.9,0.5,2.9,0.8c0.1-0.3,0.1-0.6,0.1-0.8c-0.1-0.8-0.6-1.5-1.5-1.5c-0.8,0-1.6,0.7-1.5,1.5c0,0.2,0,0.2,0,0
					c-0.2,0.8,0.3,1.7,1,1.8c0.8,0.2,1.6-0.2,1.8-1c0.1-0.4,0.2-0.8,0.2-1.2c0-1.7-2.5-2.1-2.9-0.4c-0.1,0.2-0.1,0.2,0,0.1
					c-0.1,0.2-0.1,0.2,0,0.1c-0.5,0.6-0.6,1.5,0,2.1C52.3,187.2,53.4,187.3,53.9,186.7L53.9,186.7z"/>
			</g>
		</g>
		<g>
			<g>
				<path class="st7" d="M54.8,185.8c1.1-3.6,2.5-7.2,3.1-11c0.3-1.9-2.6-2.7-2.9-0.8c-0.6,3.8-2,7.4-3.1,11
					C51.3,186.9,54.2,187.7,54.8,185.8L54.8,185.8z"/>
			</g>
		</g>
		<g>
			<g>
				<path class="st7" d="M57.1,179.2c0.5-1.6,0.9-3.3,1.2-5c0.4-1.9-2.5-2.7-2.9-0.8c-0.3,1.7-0.8,3.3-1.2,5
					C53.7,180.3,56.6,181.1,57.1,179.2L57.1,179.2z"/>
			</g>
		</g>
		<g>
			<g>
				<path class="st7" d="M50.9,177.9c0.3,2.3,0.4,4.5,0.3,6.8c1-0.1,2-0.3,2.9-0.4c-0.8-2.6-0.8-5.3-0.1-7.9c-1-0.1-2-0.3-2.9-0.4
					c0,2.5-0.1,5.1-0.4,7.6c1-0.1,2-0.3,2.9-0.4c-0.2-0.9-0.2-1.8-0.2-2.8c0.1-1.9-2.9-1.9-3,0c-0.1,1.2,0,2.4,0.3,3.6
					c0.4,1.8,2.8,1.2,2.9-0.4c0.3-2.5,0.4-5,0.4-7.6c0-1.7-2.5-2-2.9-0.4c-0.9,3.2-0.9,6.4,0.1,9.5c0.5,1.6,2.9,1.3,2.9-0.4
					c0.1-2.3,0-4.5-0.3-6.8C53.7,176,50.7,175.9,50.9,177.9L50.9,177.9z"/>
			</g>
		</g>
		<g>
			<g>
				<path class="st8" d="M40.9,162.5c6.8,3.2,16.5,3.2,22.7-1.2c1-0.7,0-2.5-1-1.7c-5.5,3.9-14.6,4.1-20.7,1.2
					C40.7,160.2,39.7,161.9,40.9,162.5L40.9,162.5z"/>
			</g>
		</g>
		<g>
			<g>
				<path class="st8" d="M39.7,160c0.2,0.2,0.3,0.5,0.5,0.7c0.5-0.4,1-0.8,1.6-1.2c-0.2-0.2-0.3-0.4-0.5-0.6
					c-0.5,0.5-0.9,0.9-1.4,1.4c1,0.9,1.9,1.7,2.8,2.6c0.8,0.8,2.1-0.2,1.6-1.2c-0.4-0.9-0.9-1.8-1.3-2.6c-0.5,0.5-0.9,0.9-1.4,1.4
					c1,0.6,1.9,1.3,2.7,2.2c0.4-0.5,0.8-1,1.2-1.6c-0.6-0.5-1.3-1-1.9-1.4c-0.3,0.6-0.6,1.1-1,1.7c1.9,0.4,3.6,1.3,5.5,2
					c0.2-0.6,0.4-1.3,0.5-1.9c-1.1-0.1-2.2-0.4-3.3-0.7c0,0.6,0,1.3,0,1.9c1.6-0.4,4.1,0.5,5.7,0.9c1.2,0.4,1.8-1.6,0.5-1.9
					c-1.7-0.5-3.4-1-5.1-1.5c0,0.6,0,1.3,0,1.9c1.8-0.4,4,0.5,5.9,0.6c1.1,0.1,1.4-1.8,0.3-2c-1.4-0.2-2.1-0.3-3.6-0.5
					c0.1,0.7,0.2,1.3,0.3,2c2.1-0.7,4.7,0,6.8,0.2c1.1,0.1,1.4-1.8,0.3-2c-2.1-0.3-3.6-0.4-5.5,0.8c-0.9,0.5-0.5,1.8,0.5,1.9
					c2.2,0.1,4.1-0.1,6.3-0.6c1.3-0.3,0.7-2.1-0.5-1.9c-1.1,0.2-2.2,0.4-3.3,0.5c-1.1,0.2-0.9,2.1,0.3,2c1.9-0.2,3.7-0.5,5.5-0.9
					c0.9-0.2,1-1.8,0-1.9c-1.6-0.3-3.1-0.4-4.7-0.3c0.1,0.7,0.2,1.3,0.3,2c1.3-0.2,2.6-0.4,4-0.5c-0.1-0.7-0.2-1.3-0.3-2
					c-1.3,0.2-2.5,0.5-3.7,0.8c0.2,0.6,0.4,1.3,0.5,1.9c2.2-0.7,4.3-1.4,6.5-2.2c-0.4-0.5-0.8-1-1.1-1.5c-0.3,0.3-0.6,0.6-0.9,0.9
					c-1,0.5-0.3,2.2,0.8,1.8c1-0.4,2-0.8,3.1-1.1c1.2-0.4,0.7-2.4-0.5-1.9c-1,0.4-2,0.8-3.1,1.1c0.3,0.6,0.5,1.2,0.8,1.8
					c1.1-0.5,1.1-0.5,1.7-1.6c0.4-0.7-0.3-1.8-1.1-1.5c-2.2,0.7-4.3,1.4-6.5,2.2c-1.2,0.4-0.7,2.3,0.5,1.9c1.2-0.3,2.4-0.6,3.7-0.8
					c1.1-0.2,0.9-2.1-0.3-2c-1.5,0.2-3,0.4-4.5,0.6c-1.1,0.2-0.9,2,0.3,2c1.4-0.2,2.8-0.1,4.2,0.2c0-0.6,0-1.3,0-1.9
					c-1.6,0.4-3.3,0.7-5,0.9c0.1,0.7,0.2,1.3,0.3,2c1.1-0.2,2.2-0.4,3.3-0.5c-0.2-0.6-0.4-1.3-0.5-1.9c-1.9,0.5-3.8,0.6-5.7,0.6
					c0.2,0.6,0.3,1.2,0.5,1.9c1.3-0.2,2.6-0.4,4-0.6c0.1-0.7,0.2-1.3,0.3-2c-2.4-0.2-5.1-1-7.4-0.2c-1.1,0.4-0.9,1.9,0.3,2
					c1,0.1,2,0.3,3.1,0.4c0.1-0.7,0.2-1.3,0.3-2c-2.3-0.2-4.2-1-6.4-0.6c-1,0.2-0.9,1.7,0,1.9c1.7,0.5,3.4,1,5.1,1.5
					c0.2-0.6,0.4-1.3,0.5-1.9c-2.1-0.6-4.5-1.5-6.8-0.9c-0.9,0.3-1,1.7,0,1.9c1.1,0.3,2.2,0.6,3.3,0.7c1.3,0.2,1.7-1.5,0.5-1.9
					c-1.9-0.7-3.5-1.6-5.5-2c-1-0.2-1.7,0.9-1,1.7c1.2,1.2,0.9,1,2.4,1.8c1,0.5,2.1-0.8,1.2-1.6c-1-1-2-1.7-3.1-2.5
					c-0.9-0.6-1.8,0.5-1.4,1.4s0.9,1.8,1.3,2.6c0.5-0.4,1-0.8,1.6-1.2c-0.9-0.9-1.8-1.8-2.8-2.6c-1-0.9-2.2,0.4-1.4,1.4
					c0.2,0.2,0.3,0.4,0.5,0.6c0.7,0.9,2.2-0.3,1.6-1.2c-0.2-0.2-0.3-0.5-0.5-0.7C40.7,157.9,39,158.9,39.7,160L39.7,160z"/>
			</g>
		</g>
		<g>
			<g>
				<path class="st8" d="M41.9,139.6c5.7,2.9,12.8,2.7,18.9,1.4c1.3-0.3,0.7-2.2-0.5-1.9c-5.5,1.2-12.1,1.4-17.3-1.2
					C41.8,137.3,40.7,139,41.9,139.6L41.9,139.6z"/>
			</g>
		</g>
		<g>
			<g>
				<path class="st8" d="M40.4,137.3c1,0.9,2,1.8,3,2.7c0.9,0.9,2.3-0.5,1.4-1.4c-1-0.9-1.9-1.8-3-2.7
					C40.8,135.1,39.4,136.5,40.4,137.3L40.4,137.3z"/>
			</g>
		</g>
		<g>
			<g>
				<path class="st8" d="M41.8,138.1c2.6,0.4,4.8,1.8,7.4,2c1.3,0.1,1.3-1.9,0-2c-1.6-0.2-3.1-0.4-4.7-0.9c0,0.6,0,1.3,0,1.9
					c2.3-0.4,5,0.1,7.4,0.3c0-0.7,0-1.3,0-2c-1.1,0.1-2.1,0.1-3.2,0.2c-1.3,0.1-1.3,1.9,0,2c1.4,0.1,2.8,0.2,4.2,0.3
					c0-0.7,0-1.3,0-2c-1.4,0.1-2.7,0.3-4.1,0.4c-1.3,0.1-1.3,2.1,0,2c2.4-0.1,4.8-0.3,7.2-0.4c0.9,0,1.5-1.4,0.5-1.9
					c-1.3-0.6-2.5-0.8-3.9-0.9c0,0.7,0,1.3,0,2c1.8,0.1,3.6,0.3,5.4,0.4c-0.1-0.7-0.2-1.3-0.3-2c-0.5,0.1-1,0.2-1.5,0.3
					c0.2,0.6,0.4,1.3,0.5,1.9c1-0.3,2-0.5,3-0.5c1.3-0.1,1.3-2.1,0-2c-1.2,0.1-2.3,0.3-3.5,0.6c-1.3,0.4-0.7,2.1,0.5,1.9
					c0.5-0.1,1-0.2,1.5-0.3c1.2-0.2,0.8-1.9-0.3-2c-1.8-0.1-3.6-0.3-5.4-0.4c-1.3-0.1-1.3,1.9,0,2c1,0.2,1.9,0.4,2.9,0.7
					c0.2-0.6,0.3-1.2,0.5-1.9c-2.4,0.1-4.8,0.3-7.2,0.4c0,0.7,0,1.3,0,2c1.4-0.1,2.7-0.3,4.1-0.4c1.3-0.1,1.3-1.9,0-2
					c-1.4-0.1-2.8-0.2-4.2-0.3c0,0.7,0,1.3,0,2c1.1-0.1,2.1-0.1,3.2-0.2c1.3-0.1,1.3-1.9,0-2c-2.6-0.2-5.4-0.7-7.9-0.2
					c-1,0.2-0.9,1.7,0,1.9c1.7,0.4,3.4,0.7,5.2,0.9c0-0.7,0-1.3,0-2c-2.4-0.2-4.5-1.5-6.9-1.9C41.1,135.9,40.5,137.9,41.8,138.1
					L41.8,138.1z"/>
			</g>
		</g>
		<g>
			<g>
				<path class="st8" d="M56.6,140.6c1.8-0.3,3.9-0.4,5.5-1.2c1.2-0.6,0.1-2.3-1-1.7c-0.7,0.3-1.7,0.4-2.5,0.5
					c-0.9,0.2-1.7,0.3-2.6,0.5C54.8,138.9,55.3,140.9,56.6,140.6L56.6,140.6z"/>
			</g>
		</g>
		<g>
			<g>
				<path class="st8" d="M60.7,138.9c0.9-0.5,1.8-1,2.7-1.6c0.4-0.3,0.6-0.9,0.4-1.4c-0.3-0.4-0.9-0.7-1.4-0.4
					c-0.9,0.6-1.7,1.1-2.7,1.6C58.6,137.8,59.6,139.5,60.7,138.9L60.7,138.9z"/>
			</g>
		</g>
		<g>
			<g>
				<path class="st8" d="M48.9,116.3c1.9-0.7,3.8-1.1,5.8-0.3c1.2,0.5,2.2-1.2,1-1.7c-2.5-1.1-4.8-0.8-7.3,0.1
					C47.2,114.8,47.7,116.7,48.9,116.3L48.9,116.3z"/>
			</g>
		</g>
		<g>
			<g>
				<path class="st8" d="M49.8,115.4c0.9-1.2,1.8-2.4,2.8-3.5c0.8-1-0.6-2.4-1.4-1.4l-0.1,0.1c-0.8,1,0.6,2.4,1.4,1.4l0.1-0.1
					c-0.5-0.5-0.9-0.9-1.4-1.4c-1.1,1.3-2.1,2.6-3.1,3.9C47.3,115.4,49.1,116.4,49.8,115.4L49.8,115.4z"/>
			</g>
		</g>
		<g>
			<g>
				<path class="st8" d="M51,114c0.3-0.4,0.5-0.9,0.8-1.4c0.2-0.5,0.3-1,0.6-1.4c-0.1,0.1-0.2,0.2-0.4,0.4l0.1-0.1
					c-0.2,0-0.3,0.1-0.5,0.1c0.1,0,0.1,0,0.2,0c-0.2,0-0.3-0.1-0.5-0.1c0,0,0.1,0,0.1,0.1c-0.1-0.1-0.2-0.2-0.4-0.4
					c0.3,0.5,0.5,1.2,0.6,1.8c0.4,1.2,2.3,0.7,1.9-0.5c-0.3-1-0.7-3.2-2.2-2.8c-0.7,0.2-0.9,0.9-1.2,1.4c-0.3,0.7-0.6,1.3-1,1.9
					C48.6,114.1,50.3,115.1,51,114L51,114z"/>
			</g>
		</g>
		<g>
			<g>
				<path class="st8" d="M51,110.5c0.5,1.3,0.9,2.6,1.2,3.9c0.3,1.2,2.3,0.7,1.9-0.5c-0.4-1.3-0.8-2.6-1.2-3.9
					C52.5,108.8,50.5,109.3,51,110.5L51,110.5z"/>
			</g>
		</g>
		<g>
			<g>
				<path class="st8" d="M50.9,113.9c1,0.2,1.8,0.6,2.6,1.2c0.8,0.5,1.6-0.3,1.5-1.1c-0.2-0.8-0.6-1.5-0.9-2.2
					c-0.6,0.3-1.2,0.7-1.7,1c0.6,0.9,1.1,1.8,1.6,2.8c0.5-0.4,1-0.8,1.6-1.2c-0.1-0.1-0.2-0.2-0.3-0.3c-0.3-0.4-1.1-0.3-1.4,0
					c-0.4,0.4-0.3,1,0,1.4c0.1,0.1,0.2,0.2,0.3,0.3c0.7,0.9,2-0.3,1.6-1.2c-0.5-1-1-1.9-1.6-2.8c-0.8-1-2.3-0.2-1.7,1
					c0.3,0.5,0.6,1.1,0.7,1.7c0.5-0.4,1-0.8,1.5-1.1c-0.9-0.7-2-1.1-3.1-1.4C50.2,111.7,49.6,113.6,50.9,113.9L50.9,113.9z"/>
			</g>
		</g>
		<g>
			<g>
				<path class="st8" d="M50,122.9c-2.1,3.1-4.2,6.1-6.4,9.2c-0.7,1.1,1,2.1,1.7,1c2.1-3.1,4.2-6.1,6.4-9.2
					C52.4,122.9,50.7,121.9,50,122.9L50,122.9z"/>
			</g>
		</g>
		<g>
			<g>
				<path class="st8" d="M48.1,149.3c-1.5,2.2-3,4.5-4.6,6.6c-0.8,1,1,2,1.7,1c1.6-2.2,3.1-4.4,4.6-6.6
					C50.6,149.2,48.8,148.2,48.1,149.3L48.1,149.3z"/>
			</g>
		</g>
		<g>
			<g>
				<path class="st8" d="M44.8,167.7c1.5,5.3,3.2,10.5,5.2,15.5c0.5,1.2,2.4,0.7,1.9-0.5c-2-5.1-3.7-10.3-5.2-15.5
					C46.3,165.9,44.4,166.4,44.8,167.7L44.8,167.7z"/>
			</g>
		</g>
		<g>
			<g>
				<path class="st8" d="M50.1,118.2c0.2,0.4,0.3,0.8,0.5,1.2c0.2,0.5,0.9,0.6,1.4,0.4c0.5-0.3,0.6-0.9,0.4-1.4
					c-0.2-0.4-0.3-0.8-0.5-1.2c-0.2-0.5-0.9-0.6-1.4-0.4C50,117.1,49.9,117.7,50.1,118.2L50.1,118.2z"/>
			</g>
		</g>
	</g>
</g>
<g id="Слой_2_1_">
	<g>
		<g>
			<path d="M51.3,108.9c1.6,1.9,3,3.9,4.5,5.9c0.4,0.5,1.2,0,0.9-0.5c-1.5-2.1-3.1-4.1-4.7-6.1C51.6,107.7,50.9,108.4,51.3,108.9
				L51.3,108.9z"/>
		</g>
	</g>
	<g>
		<g>
			<path d="M48.1,115.3c0.9-2.3,2.6-4.4,3.8-6.5c0.3-0.6-0.5-1.1-0.9-0.5c-1.3,2.2-3,4.3-3.9,6.7C46.9,115.7,47.9,115.9,48.1,115.3
				L48.1,115.3z"/>
		</g>
	</g>
	<g id="Слой_3">
		<g>
			<g>
				<path d="M65.7,51.6c2.6-3.3,5-6.8,7.2-10.4c0.3-0.5-0.5-1.1-0.9-0.5c-2.2,3.5-4.5,6.9-7.1,10.2C64.6,51.4,65.3,52.1,65.7,51.6
					L65.7,51.6z"/>
			</g>
		</g>
		<g>
			<g>
				<path d="M39.7,95.2c0.6-14.4,8.7-26,18.7-35.9c0.5-0.5-0.2-1.2-0.7-0.7c-10.2,10-18.4,21.9-19,36.6
					C38.7,95.8,39.7,95.8,39.7,95.2L39.7,95.2z"/>
			</g>
		</g>
		<g>
			<g>
				<path d="M47.8,114.7c-3.4-3.4-5.7-7.4-7.1-12c-0.2-0.6-1.1-0.4-1,0.3c1.4,4.7,3.9,9,7.4,12.5C47.6,115.9,48.3,115.2,47.8,114.7
					L47.8,114.7z"/>
			</g>
		</g>
		<g>
			<g>
				<path d="M72.9,41.5c1-2,2-4,3.1-6c0.7-1.4,1.5-4.1,2.7-5.1c4.3-3.5,3.3,5,3,6.5c-0.3,1.7-0.7,3.4-1.1,5
					c-2.1,7.7-5.6,14.8-10.4,21.3c-0.4,0.5,0.5,1,0.9,0.5c3.6-4.9,6.6-10.1,8.7-15.8c1.8-4.8,4.3-11.8,3.5-17.1
					c-0.3-1.7-1.3-4.1-3.4-3.4c-1.2,0.4-2,2.6-2.5,3.4c-1.9,3.4-3.6,6.8-5.3,10.2C71.7,41.6,72.6,42.1,72.9,41.5L72.9,41.5z"/>
			</g>
		</g>
		<g>
			<g>
				<path d="M71.4,63.7c0.7-1,1.4-1.9,2.2-2.7c0.6-0.5,1.2-0.9,1.8-1.4c0.9,1.3,1.9,2.6,2.8,3.8c0,1.3-2.4,4-3.1,5
					c-2.3,3.4-4.9,6.7-7.8,9.6c-0.5,0.5,0.2,1.2,0.7,0.7c2.9-2.8,5.3-5.9,7.6-9.2c1.7-2.4,4.9-6.1,4.5-9.3c-0.7-6.3-8.3,1-9.7,3
					C70.2,63.7,71,64.2,71.4,63.7L71.4,63.7z"/>
			</g>
		</g>
		<g>
			<g>
				<path d="M53,95c-4.5,5.9-6.6,12.9-5.9,20.2c0.1,0.6,1.1,0.6,1,0c-0.7-7.2,1.4-14,5.8-19.7C54.2,94.9,53.4,94.4,53,95L53,95z"/>
			</g>
		</g>
		<g>
			<g>
				<path d="M68.3,78.5c1.3-1.5,3.7-4.7,5.8-4.8c3.3-0.1,1.5,2.7,0.9,3.6s-1.3,1.7-2.1,2.5c-4.1,3.9-9.4,6.3-14,9.6
					c-0.5,0.4,0,1.2,0.5,0.9c3.8-2.7,8-4.8,11.7-7.7c2.2-1.7,5.2-4.1,5.8-7c0.4-1.8-0.5-3.1-2.4-2.9c-2.8,0.2-5.4,3.3-7,5.2
					C67.2,78.3,67.9,79,68.3,78.5L68.3,78.5z"/>
			</g>
		</g>
	</g>
	<g id="Слой_4">
		<g>
			<g>
				<path d="M52.3,64.9c-4.8-5.6-10-10.7-14.7-16.4c-0.4-0.5-1.1,0.2-0.7,0.7c4.7,5.6,9.9,10.8,14.7,16.4
					C52,66.1,52.7,65.4,52.3,64.9L52.3,64.9z"/>
			</g>
		</g>
		<g>
			<g>
				<path d="M56.8,115.4c7.5-7.7,9.5-18.1,7.2-28.4c-0.1-0.6-1.1-0.4-1,0.3c2.2,10,0.3,20-7,27.4C55.6,115.2,56.4,115.9,56.8,115.4
					L56.8,115.4z"/>
			</g>
		</g>
		<g>
			<g>
				<path d="M31.9,41c-1.7-3.4-3.5-6.8-5.3-10.2c-0.5-1-1.2-2.9-2.4-3.4c-2.2-0.8-3.2,1.7-3.5,3.4c-0.9,4.9,1.6,11.8,3.2,16.3
					c2.1,6,5.2,11.5,9,16.6c0.4,0.5,1.2,0,0.9-0.5c-4.8-6.4-8.4-13.5-10.4-21.3c-0.4-1.7-0.8-3.3-1.1-5c-0.3-1.6-0.5-3.1-0.6-4.7
					c1.1-0.9,2.1-1.8,3.2-2.7c1.1,0,5.8,10.9,6.3,11.9C31.3,42.1,32.2,41.6,31.9,41L31.9,41z"/>
			</g>
		</g>
		<g>
			<g>
				<path d="M33.4,63.2c-1.3-2-9.1-9.3-9.7-3c-0.3,3.1,2.6,6.5,4.2,8.8c2.4,3.5,4.9,6.8,8,9.8c0.5,0.4,1.2-0.3,0.7-0.7
					c-3-2.9-5.5-6.2-7.8-9.6c-0.8-1.2-2.5-3-2.8-4.4c-0.7-0.9-0.3-1.7,1.1-2.5c0.5-2.1,1.3-2.5,2.3-1.2c1.3,0.6,2.4,2.3,3.2,3.4
					C32.9,64.2,33.8,63.7,33.4,63.2L33.4,63.2z"/>
			</g>
		</g>
		<g>
			<g>
				<path d="M51.6,97.5c3.4,5.4,4.9,11.3,4.3,17.7c-0.1,0.6,0.9,0.6,1,0c0.6-6.5-1-12.7-4.5-18.2C52.1,96.5,51.2,97,51.6,97.5
					L51.6,97.5z"/>
			</g>
		</g>
		<g>
			<g>
				<path d="M36.3,77.8c-1.7-2-4-4.5-6.7-5c-1.7-0.3-2.8,0.6-2.7,2.3c0.4,5.9,9,9.6,13.2,12.2c0.5,0.3,1-0.5,0.5-0.9
					c-3.5-2.2-7.5-4.1-10.4-7.2c-0.9-1-4.4-6.7-0.1-5.3c2.2,0.7,4,2.8,5.5,4.5C36,79,36.7,78.3,36.3,77.8L36.3,77.8z"/>
			</g>
		</g>
	</g>
	<g id="Слой_5">
		<g>
			<g>
				<path d="M58.7,37.5c-0.5,8.6-13.5,8.7-13.5,0S58.3,28.8,58.7,37.5c0,0.6,1,0.6,1,0c-0.2-4.2-3.4-7.7-7.8-7.7
					c-4.2,0-7.8,3.5-7.8,7.7c0,4.1,3.3,7.5,7.4,7.7c4.5,0.2,7.9-3.4,8.1-7.7C59.8,36.8,58.8,36.8,58.7,37.5z"/>
			</g>
		</g>
		<g>
			<g>
				<path d="M312.5,33c1.3,0,1.3-2,0-2S311.2,33,312.5,33L312.5,33z"/>
			</g>
		</g>
	</g>
	<g id="Слой_6">
		<g id="Слой_7">
			<g>
				<g>
					<path d="M47,115.3c0.8,1.5,1.6,3,2.2,4.5c0.2,0.6,1.2,0.3,1-0.3c-0.7-1.6-1.5-3.2-2.3-4.8C47.5,114.3,46.7,114.8,47,115.3
						L47,115.3z"/>
				</g>
			</g>
			<g>
				<g>
					<path d="M49.7,120.2c0.6,0,0.6-1,0-1S49.1,120.2,49.7,120.2L49.7,120.2z"/>
				</g>
			</g>
			<g>
				<g>
					<path d="M49.4,119.5c-4,4.9-7.3,10.3-10.8,15.6c-0.4,0.5,0.5,1,0.9,0.5c3.4-5.2,6.7-10.6,10.6-15.4
						C50.5,119.8,49.8,119,49.4,119.5L49.4,119.5z"/>
				</g>
			</g>
			<g>
				<g>
					<path d="M38.6,136c2.9,3.5,5.8,7.1,8.7,10.6c0.4,0.5,1.1-0.2,0.7-0.7c-2.9-3.6-5.7-7.1-8.7-10.6
						C38.9,134.8,38.2,135.5,38.6,136L38.6,136z"/>
				</g>
			</g>
			<g>
				<g>
					<path d="M47.3,146.1c-2.9,3.6-5.7,7.3-8.3,11.1c-0.4,0.5,0.5,1,0.9,0.5c2.6-3.7,5.3-7.4,8.2-10.9
						C48.4,146.3,47.7,145.6,47.3,146.1L47.3,146.1z"/>
				</g>
			</g>
			<g>
				<g>
					<path d="M44.2,173.9c1.5,4.3,3,8.5,4.5,12.8c0.2,0.6,1.2,0.3,1-0.3c-1.5-4.3-3-8.5-4.5-12.8C44.9,173,43.9,173.3,44.2,173.9
						L44.2,173.9z"/>
				</g>
			</g>
			<g>
				<g>
					<path d="M38.7,157.7c0.8,2.8,1.7,5.6,2.7,8.4c0.2,0.6,1.2,0.3,1-0.3c-1-2.8-1.9-5.6-2.7-8.4C39.5,156.8,38.6,157.1,38.7,157.7
						L38.7,157.7z"/>
				</g>
			</g>
		</g>
		<g id="Слой_8">
			<g>
				<g>
					<path d="M55.9,114.8c-0.9,1.5-1.7,3.1-2.3,4.8c-0.2,0.6,0.7,0.9,1,0.3c0.7-1.6,1.4-3.1,2.2-4.5
						C57.1,114.8,56.2,114.3,55.9,114.8L55.9,114.8z"/>
				</g>
			</g>
			<g>
				<g>
					<path d="M54,120.2c0.6,0,0.6-1,0-1S53.4,120.2,54,120.2L54,120.2z"/>
				</g>
			</g>
			<g>
				<g>
					<path d="M61.4,131.3c1,1.5,1.9,2.9,2.9,4.4c0.4,0.5,1.2,0,0.9-0.5c-1-1.5-1.9-2.9-2.9-4.4C61.9,130.2,61,130.7,61.4,131.3
						L61.4,131.3z"/>
				</g>
			</g>
			<g>
				<g>
					<path d="M53.6,120.3c1.2,1.5,2.4,3,3.5,4.6c0.4,0.5,1.2,0,0.9-0.5c-1.2-1.6-2.4-3.3-3.7-4.8C53.9,119,53.2,119.8,53.6,120.3
						L53.6,120.3z"/>
				</g>
			</g>
			<g>
				<g>
					<path d="M64.4,135.3c-2.9,3.5-5.8,7.1-8.7,10.6c-0.4,0.5,0.3,1.2,0.7,0.7c2.9-3.6,5.7-7.1,8.7-10.6
						C65.5,135.5,64.8,134.8,64.4,135.3L64.4,135.3z"/>
				</g>
			</g>
			<g>
				<g>
					<path d="M55.8,146.8c2.9,3.5,5.6,7.2,8.2,10.9c0.4,0.5,1.2,0,0.9-0.5c-2.6-3.8-5.4-7.5-8.3-11.1
						C56.1,145.6,55.4,146.3,55.8,146.8L55.8,146.8z"/>
				</g>
			</g>
			<g>
				<g>
					<path d="M64,157.4c-2.6,9.8-6.6,19.4-10,28.9c-0.2,0.6,0.7,0.9,1,0.3c3.4-9.6,7.3-19.1,10-28.9C65.2,157.1,64.2,156.8,64,157.4
						L64,157.4z"/>
				</g>
			</g>
		</g>
		<g id="Слой_9">
		</g>
	</g>
	<g id="Слой_10">
		<g>
			<g>
				<path d="M48.9,186.2c-1.6,0.6-3.1,1.3-4.7,1.9c-0.6,0.2-0.3,1.2,0.3,1c1.6-0.6,3.1-1.3,4.7-1.9C49.7,186.9,49.5,186,48.9,186.2
					L48.9,186.2z"/>
			</g>
		</g>
		<g>
			<g>
				<path d="M47.1,203.5c0.3,1.8,0.6,3.6,0.8,5.4c0.1,0.6,1.1,0.4,1-0.3c-0.3-1.8-0.5-3.6-0.8-5.4C47.9,202.6,47,202.9,47.1,203.5
					L47.1,203.5z"/>
			</g>
		</g>
		<g>
			<g>
				<path d="M44.3,189.5c0.6,2.7,1.2,5.3,1.7,8c0.1,0.6,1.1,0.4,1-0.3c-0.5-2.7-1.1-5.3-1.7-8C45.1,188.6,44.1,188.8,44.3,189.5
					L44.3,189.5z"/>
			</g>
		</g>
		<g>
			<g>
				<path d="M47.9,289.4c0,21.9,0,43.8,0,65.7c0,0.6,1,0.6,1,0c0-21.9,0-43.8,0-65.7C48.9,288.8,47.9,288.8,47.9,289.4L47.9,289.4z"
					/>
			</g>
		</g>
		<g>
			<g>
				<path d="M47.9,209.1c0,24.2,0,48.4,0,72.7c0,0.6,1,0.6,1,0c0-24.2,0-48.4,0-72.7C48.9,208.5,47.9,208.5,47.9,209.1L47.9,209.1z"
					/>
			</g>
		</g>
		<g>
			<g>
				<path d="M54.4,187c1.6,0.6,3.1,1.3,4.7,1.9c0.6,0.2,0.9-0.7,0.3-1c-1.6-0.6-3.1-1.3-4.7-1.9C54.1,185.8,53.8,186.8,54.4,187
					L54.4,187z"/>
			</g>
		</g>
		<g>
			<g>
				<path d="M58.3,189.1c-1.5,6.4-2.7,12.9-3.6,19.4c-0.1,0.6,0.9,0.9,1,0.3c1-6.5,2.2-13,3.6-19.4
					C59.4,188.7,58.5,188.4,58.3,189.1L58.3,189.1z"/>
			</g>
		</g>
		<g>
			<g>
				<path d="M54.6,345.4c0,3.2,0.1,6.4,0.1,9.6c0,0.6,1,0.6,1,0c0-3.2-0.1-6.4-0.1-9.6C55.6,344.7,54.6,344.7,54.6,345.4L54.6,345.4
					z"/>
			</g>
		</g>
		<g>
			<g>
				<path d="M54.7,222.3c-0.5,36.4-0.5,72.9-0.2,109.3c0,0.6,1,0.6,1,0c-0.3-36.4-0.3-72.9,0.2-109.3
					C55.7,221.6,54.7,221.6,54.7,222.3L54.7,222.3z"/>
			</g>
		</g>
		<g>
			<g>
				<path d="M54.7,209c0,2.6,0,5.1,0,7.7c0,0.6,1,0.6,1,0c0-2.6,0-5.1,0-7.7C55.7,208.3,54.7,208.3,54.7,209L54.7,209z"/>
			</g>
		</g>
	</g>
	<g id="Слой_11" class="st9">
		<g class="st10">
			<g>
				<path d="M46.5,124.7c0,64.2,0,128.3,0,192.5c0,18,0,35.9,0,53.9c0,0.6,1,0.6,1,0c0-43.5,0-87,0-130.4c0-12.3,0-24.6,0-36.8
					c0-0.6-1-0.6-1,0c0,43.3,0,86.6,0,129.9c0,12.3,0,24.7,0,37c0,0.6,1,0.6,1,0c0-43.3,0-86.6,0-129.9c0-12.3,0-24.7,0-37
					c0-0.6-1-0.6-1,0c0,43.5,0,87,0,130.4c0,12.3,0,24.6,0,36.8c0,0.6,1,0.6,1,0c0-64.2,0-128.3,0-192.5c0-18,0-35.9,0-53.9
					C47.5,124,46.5,124,46.5,124.7L46.5,124.7z"/>
			</g>
		</g>
	</g>
</g>
<g id="Слой_12">
	<g>
		<g>
			<path d="M58.7,361.9c-0.2,3.8-3,6.9-6.9,6.9c-3.8,0-6.9-3.2-6.9-6.9c0-3.8,3.1-6.9,6.9-6.9C55.7,355,58.5,358.2,58.7,361.9
				c0,0.6,1,0.6,1,0c-0.2-4.3-3.5-7.9-7.9-7.9c-4.3,0-7.9,3.6-7.9,7.9s3.6,7.9,7.9,7.9c4.4,0,7.7-3.6,7.9-7.9
				C59.7,361.3,58.7,361.3,58.7,361.9z"/>
		</g>
	</g>
</g>
<g id="Слой_13">
	<g>
		<g>
			<path d="M49.1,187.1c1.9,1.1,4.3,1.5,6-0.1c0.5-0.4-0.2-1.1-0.7-0.7c-1.4,1.3-3.3,0.8-4.8,0C49,185.9,48.5,186.8,49.1,187.1
				L49.1,187.1z"/>
		</g>
	</g>
	<g>
		<g>
			<path d="M39.5,136c8.1,3,16.9,3,25,0.1c0.6-0.2,0.3-1.2-0.3-1c-8,2.9-16.5,2.8-24.5-0.1C39.2,134.8,38.9,135.7,39.5,136L39.5,136
				z"/>
		</g>
	</g>
	<g>
		<g>
			<path d="M39.4,158.4c7.6,4,17.2,1.6,25.2-0.1c0.6-0.1,0.4-1.1-0.3-1c-7.7,1.7-17,4.1-24.4,0.2C39.4,157.2,38.9,158.1,39.4,158.4
				L39.4,158.4z"/>
		</g>
	</g>
</g>
</svg>
